<svg class="icon" viewBox="0 0 1024 1024" version="1.1" xmlns="http://www.w3.org/2000/svg" id="mx_n_1716392709834"
     width="200" height="200">
    <path d="M928.2 450.7c0-17.6-14.3-31.9-31.9-31.9-17.6 0-31.9 14.3-31.9 31.9v80.6c0 1.1 0.1 2.3 0.2 3.4v330H161.9V162h702.7v6.1c-0.1 1.1-0.2 2.2-0.2 3.4v83.1c0 17.6 14.3 31.9 31.9 31.9 17.6 0 31.9-14.3 31.9-31.9v-54.3h0.2V162c0-35.2-28.7-63.9-63.9-63.9H161.9C126.7 98.2 98 126.8 98 162v702.7c0 35.2 28.7 63.9 63.9 63.9h702.7c35.2 0 63.9-28.7 63.9-63.9V485.1h-0.2v-34.4z"
          fill="white"></path>
    <path d="M513.2 745.2c17.6 0 31.9-14.3 31.9-31.9V529.5h135.4c17.6 0 31.9-14.3 31.9-31.9 0-17.6-14.3-31.9-31.9-31.9H545.2V341.3c0-17.6-14.3-31.9-31.9-31.9-17.6 0-31.9 14.3-31.9 31.9v124.3H345.8c-17.6 0-31.9 14.3-31.9 31.9 0 17.6 14.3 31.9 31.9 31.9h135.4v183.8c0.1 17.7 14.4 32 32 32z"
          fill="white"></path>
    <path d="M858.639777 360.847838a38.7 38.7 0 1 0 75.328393-17.787444 38.7 38.7 0 1 0-75.328393 17.787444Z"
          fill="white"></path>
</svg>