<svg class="icon" viewBox="0 0 1024 1024" version="1.1" xmlns="http://www.w3.org/2000/svg" width="200" height="200"><path d="M478.144 947.328c-120.448 0-176.96 0.128-297.408-0.064-104.384-0.128-146.432-42.56-146.432-147.264-0.064-195.008-0.128-389.952 0-584.96 0.064-92.224 44.48-137.792 137.152-137.984 247.04-0.576 430.144-0.64 677.184 0.064 95.104 0.256 140.992 47.36 141.056 141.696 0.128 196.032 0.128 392 0 588.032-0.064 95.872-44.16 140.096-140.992 140.416-123.52 0.384-247.04 0.064-370.56 0.064z m375.296-51.52c62.016-0.128 84.224-22.72 84.288-85.248v-596.992c0-62.528-22.272-85.312-84.16-85.312-248.96-0.128-433.984-0.128-682.944 0-62.016 0.064-84.224 22.72-84.288 85.248v596.992c0 62.592 22.208 85.248 84.16 85.312 123.456 0.192 182.976 0.064 306.432 0.064 125.504 0 251.008 0.128 376.512-0.064z" fill="#007bff"></path><path d="M769.6 288.128h-313.6c-13.504 0-24.32 10.816-24.32 24.32s10.816 24.32 24.32 24.32h313.6c13.504 0 24.32-10.816 24.32-24.32a24.576 24.576 0 0 0-24.32-24.32z m-313.6 203.776c-13.504 0-24.32 10.816-24.32 24.32s10.816 24.32 24.32 24.32h313.6c13.504 0 24.32-10.816 24.32-24.32a24.576 24.576 0 0 0-24.32-24.32h-313.6zM230.08 349.76h78.912v-78.912h-78.912v78.912z m0 205.952h78.912v-78.912h-78.912v78.912z m225.92 133.632a24.256 24.256 0 0 0-24.32 24.32c0 13.504 10.816 24.32 24.32 24.32h313.6c13.504 0 24.32-10.816 24.32-24.32a24.576 24.576 0 0 0-24.32-24.32h-313.6z m-225.92 63.808h78.912v-78.912h-78.912v78.912z" fill="#007bff"></path></svg>