<svg data-v-0dd9719b="" version="1.0" xmlns="http://www.w3.org/2000/svg" xmlns:xlink="http://www.w3.org/1999/xlink" width="100" height="73" viewBox="0 0 340.000000 250.000000" preserveAspectRatio="xMidYMid meet" color-interpolation-filters="sRGB" style="">   <g data-v-0dd9719b="" fill="#ff0844" class="icon-text-wrapper icon-svg-group iconsvg" transform="translate(45.19999694824219,0.47022247314453125)"><g class="iconsvg-imagesvg" transform="translate(0,0)" mask="url(#3ffdc8f8-7f25-409a-82da-ee3d0a584297)"><g><rect fill="#ff0844" fill-opacity="0" stroke-width="2" x="0" y="0" width="249.5999999999999" height="249.05954079647157" class="image-rect"></rect> <svg filter="url(#colors2414649203)" x="0" y="0" width="249.5999999999999" height="249.05954079647157" filtersec="colorsf3466325625" class="image-svg-svg primary" style="overflow: visible;"><svg xmlns="http://www.w3.org/2000/svg" viewBox="0 -0.011135101318359375 103.82611083984375 103.60115051269531"><title>资源 9</title><path d="M11.65.05L.29 13h6.54c7.34 0 14.67-.06 22 .05A5.37 5.37 0 0 0 33.55 11c2.64-3.25 5.45-6.35 8.28-9.39A4.63 4.63 0 0 1 44.71.12C53.79 0 62.87.05 72 .06c.39 0 .77.1 1.65.21l-11 12.53c1.12.09 1.82.2 2.52.2 8.25 0 16.5.07 24.75-.07a5.62 5.62 0 0 0 3.57-1.62c3.3-3.46 6.41-7.13 10.15-10.54 0 4 .06 7.91-.07 11.86 0 .7-.79 1.43-1.32 2-2.91 3.33-5.78 6.68-8.82 9.88a5 5 0 0 1-3.17 1.39c-5.16.14-10.33 0-15.49.1a3.61 3.61 0 0 0-2.45.79c-3.24 3.78-6.35 7.68-9.79 11.9 1.16.08 1.86.18 2.57.18 8.25 0 16.5.07 24.74-.07a5.62 5.62 0 0 0 3.59-1.6c3.32-3.48 6.44-7.16 10-10.65-.53 5.4 2.52 11.25-2.81 15.93a54.12 54.12 0 0 0-6.47 7.28 5.2 5.2 0 0 1-4.71 2.08c-4.75-.13-9.5-.15-14.24 0a5.67 5.67 0 0 0-3.58 1.59c-3.21 3.44-6.18 7.09-9.55 11 1.23.1 1.94.2 2.65.21 8.41 0 16.83.07 25.24-.07A5.55 5.55 0 0 0 93.48 63c3.33-3.47 6.45-7.13 10.17-11.31 0 4.71.06 8.66-.06 12.6 0 .71-.76 1.46-1.29 2.07-2.91 3.32-5.79 6.68-8.84 9.86a5 5 0 0 1-3.16 1.4c-5 .15-10 0-15 .1a3.89 3.89 0 0 0-2.52.62c-3.55 3.82-7 7.76-10.78 12 1.23.11 1.93.22 2.63.22h25.24a4.47 4.47 0 0 0 3.82-1.81c3.07-3.59 6.25-7.09 9.92-11.24v12.81c0 .49-.56 1-.94 1.44-3.13 3.57-6.25 7.15-9.45 10.66a3.27 3.27 0 0 1-2.08 1.07c-9.49.06-19 0-28.49 0a4.84 4.84 0 0 1-1-.31c0-3.31-.1-6.71 0-10.1.08-2-.6-2.57-2.56-2.52-5 .12-10-.06-15 .11a5.37 5.37 0 0 0-3.31 1.57c-3 3.19-5.84 6.63-8.89 9.82a4.93 4.93 0 0 1-3.14 1.42c-8.75.11-17.5 0-26.25.11-2.06 0-2.48-.7-2.47-2.6Q.09 51.85 0 2.61C0 .45.71-.1 2.72 0c2.72.17 5.46.05 8.93.05zm49.77 77.58V65.17a4.82 4.82 0 0 0-1.09-.29c-5.66 0-11.32-.09-17 0a4 4 0 0 0-2.44 1.35C38 69.43 35.07 72.65 32.3 76a4.61 4.61 0 0 1-4.07 1.78c-4.91-.11-9.82 0-14.73 0-.72 0-1.71 0-2.1.42C7.76 82.1 4.23 86.13.5 90.33a7.81 7.81 0 0 0 1.14.28h28a4.29 4.29 0 0 0 2.68-1.36c2.9-3.1 5.73-6.27 8.45-9.53a5 5 0 0 1 4.43-2.09c5.28.1 10.6 0 16.22 0zM.5 38.59a12.25 12.25 0 0 0 1.8.31c9 0 18 .05 27 0a4.23 4.23 0 0 0 2.68-1.35q4.52-4.83 8.79-9.88a4.38 4.38 0 0 1 3.82-1.78c5 .11 10 .08 15 0 .69 0 1.92-.72 1.94-1.14.15-3.78.09-7.57.09-11.58-6.46 0-12.52 0-18.57.06a3.37 3.37 0 0 0-2 1.23c-3 3.32-5.91 6.77-9 10a5.39 5.39 0 0 1-3.34 1.53c-5 .16-10 0-15 .09a3.89 3.89 0 0 0-2.51.64C7.6 30.5 4.18 34.44.5 38.59zM.26 64.72c10.33 0 19.89 0 29.45-.06a3.59 3.59 0 0 0 2.23-1.26C35 60 38 56.51 41.12 53.19a4.92 4.92 0 0 1 3.15-1.41c5.08-.15 10.16 0 15.23-.13.7 0 2-.86 2-1.36.17-3.63.09-7.28.09-10.86a3.78 3.78 0 0 0-.94-.34c-5.82 0-11.65-.08-17.47 0a3.64 3.64 0 0 0-2.24 1.25c-2.87 3.12-5.75 6.24-8.43 9.53a5.08 5.08 0 0 1-4.5 2c-4.83-.1-9.66-.06-14.48 0a3.46 3.46 0 0 0-2.29.61c-3.56 3.82-7 7.76-10.98 12.24z" fill="#000000"></path></svg></svg> <defs><filter id="colors2414649203"><feColorMatrix type="matrix" values="0 0 0 0 0.99609375  0 0 0 0 0.03125  0 0 0 0 0.265625  0 0 0 1 0" class="icon-fecolormatrix"></feColorMatrix></filter> <filter id="colorsf3466325625"><feColorMatrix type="matrix" values="0 0 0 0 0.99609375  0 0 0 0 0.99609375  0 0 0 0 0.99609375  0 0 0 1 0" class="icon-fecolormatrix"></feColorMatrix></filter> <filter id="colorsb86421255"><feColorMatrix type="matrix" values="0 0 0 0 0  0 0 0 0 0  0 0 0 0 0  0 0 0 1 0" class="icon-fecolormatrix"></feColorMatrix></filter></defs></g><rect v-gra="id" width="261.6000061035156" height="261.05955505371094" transform="translate(-6, -6)" style="pointer-events:none;" fill="url(#zoN92ywbyGXiEzskkg9PM)"></rect></g> <g transform="translate(104.80000305175781,214.05955505371094)"><g data-gra="path-name" fill-rule="" class="tp-name iconsvg-namesvg" fill="url(#73973802-cb54-4e66-b01c-4c73a44e9808)"><g transform="scale(1)"><g><path d="" transform="translate(0, 0)"></path></g> <!----> <!----> <!----> <!----> <!----> <!----> <!----></g></g> <!----></g></g><defs v-gra="od"><linearGradient x1="0" y1="1" x2="0" y2="0" id="73973802-cb54-4e66-b01c-4c73a44e9808"><stop offset="0%" stop-color="#f9b32d"></stop><stop offset="50%" stop-color="#ffd648"></stop><stop offset="100%" stop-color="#39ffcc"></stop></linearGradient><filter id="42443b3f1de60f6b6fd3b6a9844b4764" filterUnits="objectBoundingBox"><feColorMatrix type="matrix" values="0 0 0 0 0.99609375  0 0 0 0 0.99609375  0 0 0 0 0.99609375  0 0 0 1 0"></feColorMatrix></filter></defs><defs v-gra="id"><filter id="df1fa57e-3c64-469f-a67d-a3ffc26902ec" filterUnits="userSpaceOnUse"><feColorMatrix type="matrix" values="0 0 0 0 0.99609375  0 0 0 0 0.99609375  0 0 0 0 0.99609375  0 0 0 1 0"></feColorMatrix></filter><linearGradient x1="0" y1="1" x2="0" y2="0" id="zoN92ywbyGXiEzskkg9PM"><stop offset="0%" stop-color="#ffa044"></stop><stop offset="50%" stop-color="#ffd648"></stop><stop offset="100%" stop-color="#39ffcc"></stop></linearGradient><filter id="42443b3f1de60f6b6fd3b6a9844b4764" filterUnits="objectBoundingBox"><feColorMatrix type="matrix" values="0 0 0 0 0.99609375  0 0 0 0 0.99609375  0 0 0 0 0.99609375  0 0 0 1 0"></feColorMatrix></filter></defs><mask v-gra="im" id="3ffdc8f8-7f25-409a-82da-ee3d0a584297"><g class="iconsvg-imagesvg" filter="url(#df1fa57e-3c64-469f-a67d-a3ffc26902ec)"><g><rect fill="#ff0844" fill-opacity="0" stroke-width="2" x="0" y="0" width="249.5999999999999" height="249.05954079647157" class="image-rect"></rect> <svg x="0" y="0" width="249.5999999999999" height="249.05954079647157" filtersec="colorsf3466325625" class="image-svg-svg primary" style="overflow: visible;"><svg xmlns="http://www.w3.org/2000/svg" viewBox="0 -0.011135101318359375 103.82611083984375 103.60115051269531"><title>资源 9</title><path d="M11.65.05L.29 13h6.54c7.34 0 14.67-.06 22 .05A5.37 5.37 0 0 0 33.55 11c2.64-3.25 5.45-6.35 8.28-9.39A4.63 4.63 0 0 1 44.71.12C53.79 0 62.87.05 72 .06c.39 0 .77.1 1.65.21l-11 12.53c1.12.09 1.82.2 2.52.2 8.25 0 16.5.07 24.75-.07a5.62 5.62 0 0 0 3.57-1.62c3.3-3.46 6.41-7.13 10.15-10.54 0 4 .06 7.91-.07 11.86 0 .7-.79 1.43-1.32 2-2.91 3.33-5.78 6.68-8.82 9.88a5 5 0 0 1-3.17 1.39c-5.16.14-10.33 0-15.49.1a3.61 3.61 0 0 0-2.45.79c-3.24 3.78-6.35 7.68-9.79 11.9 1.16.08 1.86.18 2.57.18 8.25 0 16.5.07 24.74-.07a5.62 5.62 0 0 0 3.59-1.6c3.32-3.48 6.44-7.16 10-10.65-.53 5.4 2.52 11.25-2.81 15.93a54.12 54.12 0 0 0-6.47 7.28 5.2 5.2 0 0 1-4.71 2.08c-4.75-.13-9.5-.15-14.24 0a5.67 5.67 0 0 0-3.58 1.59c-3.21 3.44-6.18 7.09-9.55 11 1.23.1 1.94.2 2.65.21 8.41 0 16.83.07 25.24-.07A5.55 5.55 0 0 0 93.48 63c3.33-3.47 6.45-7.13 10.17-11.31 0 4.71.06 8.66-.06 12.6 0 .71-.76 1.46-1.29 2.07-2.91 3.32-5.79 6.68-8.84 9.86a5 5 0 0 1-3.16 1.4c-5 .15-10 0-15 .1a3.89 3.89 0 0 0-2.52.62c-3.55 3.82-7 7.76-10.78 12 1.23.11 1.93.22 2.63.22h25.24a4.47 4.47 0 0 0 3.82-1.81c3.07-3.59 6.25-7.09 9.92-11.24v12.81c0 .49-.56 1-.94 1.44-3.13 3.57-6.25 7.15-9.45 10.66a3.27 3.27 0 0 1-2.08 1.07c-9.49.06-19 0-28.49 0a4.84 4.84 0 0 1-1-.31c0-3.31-.1-6.71 0-10.1.08-2-.6-2.57-2.56-2.52-5 .12-10-.06-15 .11a5.37 5.37 0 0 0-3.31 1.57c-3 3.19-5.84 6.63-8.89 9.82a4.93 4.93 0 0 1-3.14 1.42c-8.75.11-17.5 0-26.25.11-2.06 0-2.48-.7-2.47-2.6Q.09 51.85 0 2.61C0 .45.71-.1 2.72 0c2.72.17 5.46.05 8.93.05zm49.77 77.58V65.17a4.82 4.82 0 0 0-1.09-.29c-5.66 0-11.32-.09-17 0a4 4 0 0 0-2.44 1.35C38 69.43 35.07 72.65 32.3 76a4.61 4.61 0 0 1-4.07 1.78c-4.91-.11-9.82 0-14.73 0-.72 0-1.71 0-2.1.42C7.76 82.1 4.23 86.13.5 90.33a7.81 7.81 0 0 0 1.14.28h28a4.29 4.29 0 0 0 2.68-1.36c2.9-3.1 5.73-6.27 8.45-9.53a5 5 0 0 1 4.43-2.09c5.28.1 10.6 0 16.22 0zM.5 38.59a12.25 12.25 0 0 0 1.8.31c9 0 18 .05 27 0a4.23 4.23 0 0 0 2.68-1.35q4.52-4.83 8.79-9.88a4.38 4.38 0 0 1 3.82-1.78c5 .11 10 .08 15 0 .69 0 1.92-.72 1.94-1.14.15-3.78.09-7.57.09-11.58-6.46 0-12.52 0-18.57.06a3.37 3.37 0 0 0-2 1.23c-3 3.32-5.91 6.77-9 10a5.39 5.39 0 0 1-3.34 1.53c-5 .16-10 0-15 .09a3.89 3.89 0 0 0-2.51.64C7.6 30.5 4.18 34.44.5 38.59zM.26 64.72c10.33 0 19.89 0 29.45-.06a3.59 3.59 0 0 0 2.23-1.26C35 60 38 56.51 41.12 53.19a4.92 4.92 0 0 1 3.15-1.41c5.08-.15 10.16 0 15.23-.13.7 0 2-.86 2-1.36.17-3.63.09-7.28.09-10.86a3.78 3.78 0 0 0-.94-.34c-5.82 0-11.65-.08-17.47 0a3.64 3.64 0 0 0-2.24 1.25c-2.87 3.12-5.75 6.24-8.43 9.53a5.08 5.08 0 0 1-4.5 2c-4.83-.1-9.66-.06-14.48 0a3.46 3.46 0 0 0-2.29.61c-3.56 3.82-7 7.76-10.98 12.24z" fill="#000000"></path></svg></svg> <defs><filter id="colors2414649203"><feColorMatrix type="matrix" values="0 0 0 0 0.99609375  0 0 0 0 0.03125  0 0 0 0 0.265625  0 0 0 1 0" class="icon-fecolormatrix"></feColorMatrix></filter> <filter id="colorsf3466325625"><feColorMatrix type="matrix" values="0 0 0 0 0.99609375  0 0 0 0 0.99609375  0 0 0 0 0.99609375  0 0 0 1 0" class="icon-fecolormatrix"></feColorMatrix></filter> <filter id="colorsb86421255"><feColorMatrix type="matrix" values="0 0 0 0 0  0 0 0 0 0  0 0 0 0 0  0 0 0 1 0" class="icon-fecolormatrix"></feColorMatrix></filter></defs></g></g></mask></svg>