<svg t="1716998777776" class="icon" viewBox="0 0 1024 1024" version="1.1" xmlns="http://www.w3.org/2000/svg" p-id="6401" width="200" height="200"><path d="M51.2 102.4a51.2 51.2 0 1 1-51.2 51.2 51.2 51.2 0 0 1 51.2-51.2z m204.8 0h716.8a51.2 51.2 0 0 1 0 102.4H256a51.2 51.2 0 0 1 0-102.4zM51.2 460.8a51.2 51.2 0 1 1-51.2 51.2 51.2 51.2 0 0 1 51.2-51.2z m204.8 0h716.8a51.2 51.2 0 0 1 0 102.4H256a51.2 51.2 0 0 1 0-102.4z m-204.8 358.4a51.2 51.2 0 1 1-51.2 51.2 51.2 51.2 0 0 1 51.2-51.2z m204.8 0h716.8a51.2 51.2 0 0 1 0 102.4H256a51.2 51.2 0 0 1 0-102.4z" fill="#007bff" p-id="6402"></path></svg>