<svg class="icon" viewBox="0 0 1024 1024" version="1.1" xmlns="http://www.w3.org/2000/svg" width="200" height="200"><path d="M512 938.666667C277.333333 938.666667 85.333333 746.666667 85.333333 512S277.333333 85.333333 512 85.333333s426.666667 192 426.666667 426.666667-192 426.666667-426.666667 426.666667z m0-789.333334c-200.533333 0-362.666667 162.133333-362.666667 362.666667s162.133333 362.666667 362.666667 362.666667 362.666667-162.133333 362.666667-362.666667-162.133333-362.666667-362.666667-362.666667z" fill="#007bff"></path><path d="M456.533333 622.933333h-4.266666c-17.066667 0-29.866667-12.8-29.866667-29.866666v-162.133334c0-17.066667 12.8-29.866667 29.866667-29.866666h4.266666c17.066667 0 29.866667 12.8 29.866667 29.866666v162.133334c0 17.066667-12.8 29.866667-29.866667 29.866666zM571.733333 622.933333h-4.266666c-17.066667 0-29.866667-12.8-29.866667-29.866666v-162.133334c0-17.066667 12.8-29.866667 29.866667-29.866666h4.266666c17.066667 0 29.866667 12.8 29.866667 29.866666v162.133334c0 17.066667-12.8 29.866667-29.866667 29.866666z" fill="#007bff"></path></svg>