<svg t="1717335207397" class="icon" viewBox="0 0 1024 1024" version="1.1" xmlns="http://www.w3.org/2000/svg" p-id="6708" width="200" height="200"><path d="M118.057 327.61c-7.57-1.97-15.3 1.69-18.38 8.89a444.673 444.673 0 0 0-24.41 75.23c-1.74 7.63 2.38 15.03 9.66 17.89l307.92 121.09-177.88 278.88c-4.21 6.6-3.12 15.08 2.77 20.23a449.18 449.18 0 0 0 63.97 46.53c6.72 4.04 15.01 2.39 20-3.65l210.29-255.39 210.3 255.39c4.98 6.05 13.43 7.6 20.15 3.56a449.708 449.708 0 0 0 63.88-46.5c5.9-5.15 6.92-13.56 2.71-20.16l-177.89-278.88 307.93-121.09c7.28-2.86 11.39-10.35 9.64-17.98a443.574 443.574 0 0 0-24.44-75.23c-3.06-7.2-10.75-10.78-18.33-8.82l-320.3 83.02-20.01-330.18c-0.47-7.82-6.37-14.05-14.18-14.73a455.578 455.578 0 0 0-78.97 0.01c-7.81 0.68-13.65 6.9-14.12 14.73l-20.02 330.17-320.29-83.01z" p-id="6709" fill="#007bff"></path></svg>