<svg height="1024" node-id="1" sillyvg="true" template-height="1024" template-width="1828" version="1.1" viewBox="0 0 1828 1024" width="1828" xmlns="http://www.w3.org/2000/svg" xmlns:xlink="http://www.w3.org/1999/xlink"><defs node-id="38"></defs><path d="M 800.60 682.30 L 303.00 682.30 L 299.90 682.60 L 297.00 683.40 L 294.30 684.70 L 291.80 686.40 L 289.80 688.50 L 288.00 690.90 L 286.80 693.60 L 286.00 696.50 L 285.70 699.70 L 451.50 979.80 L 451.70 983.00 L 452.50 985.90 L 453.80 988.60 L 455.60 991.00 L 457.60 993.10 L 460.10 994.80 L 462.70 996.10 L 465.60 996.90 L 468.80 997.20 L 966.30 997.20 L 969.50 996.90 L 972.40 996.10 L 975.10 994.80 L 977.50 993.10 L 979.60 991.00 L 981.30 988.60 L 982.60 985.90 L 983.40 983.00 L 983.70 979.80 L 817.90 699.70 L 815.70 694.20 L 813.60 690.00 L 812.00 687.60 L 810.20 685.70 L 808.30 684.20 L 806.20 683.20 L 803.60 682.60 L 800.60 682.30 Z" fill="#d2e9fe" fill-rule="nonzero" node-id="40" stroke="none" target-height="314.90002" target-width="698" target-x="285.7" target-y="682.3"/><path d="M 633.80 860.90 L 636.80 860.70 L 642.30 859.20 L 644.70 857.90 L 647.80 855.80 L 650.40 853.20 L 652.50 850.20 L 653.80 847.70 L 655.30 842.20 L 655.50 839.20 L 655.30 836.20 L 653.80 830.80 L 652.50 828.30 L 650.40 825.20 L 647.80 822.70 L 644.70 820.50 L 639.60 818.30 L 636.80 817.80 L 633.80 817.50 L 628.00 818.30 L 622.90 820.50 L 619.80 822.70 L 617.20 825.20 L 615.10 828.30 L 613.80 830.80 L 612.30 836.20 L 612.10 839.20 L 612.30 842.20 L 613.80 847.70 L 615.10 850.20 L 617.20 853.20 L 619.80 855.80 L 622.90 857.90 L 625.40 859.20 L 630.80 860.70 L 633.80 860.90 Z" fill="#ffffff" fill-rule="nonzero" node-id="42" stroke="none" target-height="43.400024" target-width="43.400024" target-x="612.1" target-y="817.5"/><path d="M 1749.60 999.20 L 59.30 999.20 L 54.90 1000.00 L 51.30 1002.20 L 48.60 1005.40 L 47.70 1007.30 L 46.90 1011.60 L 47.70 1015.90 L 49.80 1019.60 L 53.00 1022.30 L 57.00 1023.80 L 59.30 1024.00 L 1749.60 1024.00 L 1753.90 1023.20 L 1755.80 1022.30 L 1759.00 1019.60 L 1761.20 1015.90 L 1761.80 1013.90 L 1762.00 1011.60 L 1761.80 1009.40 L 1761.20 1007.30 L 1759.00 1003.60 L 1755.80 1000.90 L 1753.90 1000.00 L 1749.60 999.20 Z" fill="#000000" fill-rule="nonzero" node-id="44" stroke="none" target-height="24.799988" target-width="1715.1" target-x="46.9" target-y="999.2"/><path d="M 16.00 442.80 L 231.70 442.80 L 234.70 443.10 L 237.30 443.80 L 239.80 445.00 L 242.10 446.60 L 244.00 448.50 L 245.60 450.80 L 246.70 453.20 L 247.50 455.90 L 247.70 458.80 L 247.70 574.50 L 247.50 577.40 L 246.70 580.00 L 245.60 582.50 L 244.00 584.80 L 242.10 586.70 L 239.80 588.30 L 237.30 589.50 L 234.70 590.20 L 231.70 590.50 L 212.00 590.50 L 210.60 641.00 L 153.50 590.50 L 16.00 590.50 L 13.10 590.20 L 10.40 589.50 L 7.90 588.30 L 5.70 586.70 L 3.80 584.80 L 2.20 582.50 L 1.00 580.00 L 0.30 577.40 L 0.00 574.50 L 0.00 458.80 L 0.30 455.90 L 1.00 453.20 L 2.20 450.80 L 3.80 448.50 L 5.70 446.60 L 7.90 445.00 L 10.40 443.80 L 13.10 443.10 L 16.00 442.80 Z" fill="#315bf4" fill-rule="nonzero" node-id="46" stroke="none" target-height="198.20001" target-width="247.7" target-x="0" target-y="442.8"/><path d="M 57.80 552.30 L 65.60 551.50 L 72.70 549.30 L 77.10 547.00 L 81.10 544.30 L 84.80 541.10 L 88.00 537.40 L 90.80 533.40 L 93.00 528.90 L 95.20 521.80 L 96.00 514.10 L 95.20 506.30 L 93.00 499.20 L 90.80 494.80 L 88.00 490.70 L 84.80 487.10 L 81.10 483.80 L 77.10 481.10 L 72.70 478.90 L 65.60 476.70 L 57.80 475.90 L 50.10 476.70 L 42.90 478.90 L 38.50 481.10 L 34.50 483.80 L 30.80 487.10 L 27.60 490.70 L 24.80 494.80 L 22.60 499.20 L 20.40 506.30 L 19.60 514.10 L 20.40 521.80 L 22.60 528.90 L 24.80 533.40 L 27.60 537.40 L 30.80 541.10 L 34.50 544.30 L 38.50 547.00 L 42.90 549.30 L 50.10 551.50 L 57.80 552.30 Z" fill="#ffffff" fill-rule="nonzero" node-id="48" stroke="none" target-height="76.399994" target-width="76.4" target-x="19.6" target-y="475.9"/><g node-id="122"><path d="M 101.20 552.30 L 108.90 551.50 L 116.00 549.30 L 120.50 547.00 L 124.50 544.30 L 128.20 541.10 L 131.40 537.40 L 134.10 533.40 L 136.40 528.90 L 138.60 521.80 L 139.40 514.10 L 138.60 506.30 L 136.40 499.20 L 134.10 494.80 L 131.40 490.70 L 128.20 487.10 L 124.50 483.80 L 120.50 481.10 L 116.00 478.90 L 108.90 476.70 L 105.10 476.10 L 101.20 475.90 L 97.20 476.10 L 89.80 477.60 L 86.30 478.90 L 81.90 481.10 L 77.80 483.80 L 74.20 487.10 L 70.90 490.70 L 68.20 494.80 L 66.00 499.20 L 63.80 506.30 L 63.00 514.10 L 63.80 521.80 L 66.00 528.90 L 68.20 533.40 L 70.90 537.40 L 74.20 541.10 L 77.80 544.30 L 81.90 547.00 L 86.30 549.30 L 93.40 551.50 L 101.20 552.30 Z" fill="#ffffff" fill-opacity="0.48" fill-rule="nonzero" group-id="1" node-id="52" stroke="none" target-height="76.399994" target-width="76.399994" target-x="63" target-y="475.9"/></g><path d="M 187.90 491.40 L 164.10 491.40 L 162.20 491.10 L 160.50 490.40 L 159.00 489.20 L 157.90 487.80 L 157.20 486.10 L 156.90 484.10 L 157.20 482.20 L 157.90 480.50 L 159.00 479.00 L 160.50 477.90 L 162.20 477.20 L 164.10 476.90 L 187.90 476.90 L 189.80 477.20 L 191.50 477.90 L 193.00 479.00 L 194.10 480.50 L 194.80 482.20 L 195.10 484.10 L 194.80 486.10 L 194.10 487.80 L 193.00 489.20 L 191.50 490.40 L 189.80 491.10 L 187.90 491.40 Z" fill="#ff3f08" fill-rule="nonzero" node-id="55" stroke="none" target-height="14.5" target-width="38.200012" target-x="156.9" target-y="476.9"/><path d="M 216.80 521.30 L 164.10 521.30 L 162.20 521.00 L 160.50 520.30 L 159.00 519.20 L 157.90 517.70 L 157.20 516.00 L 156.90 514.10 L 157.20 512.10 L 157.90 510.40 L 159.00 509.00 L 160.50 507.80 L 162.20 507.10 L 164.10 506.80 L 216.80 506.80 L 218.70 507.10 L 220.40 507.80 L 221.90 509.00 L 223.00 510.40 L 223.70 512.10 L 224.00 514.10 L 223.70 516.00 L 223.00 517.70 L 221.90 519.20 L 220.40 520.30 L 218.70 521.00 L 216.80 521.30 Z" fill="#ffffff" fill-rule="nonzero" node-id="57" stroke="none" target-height="14.5" target-width="67.100006" target-x="156.9" target-y="506.8"/><path d="M 201.30 551.20 L 164.10 551.20 L 162.20 551.00 L 160.50 550.20 L 159.00 549.10 L 157.90 547.60 L 157.20 545.90 L 156.90 544.00 L 157.20 542.10 L 157.90 540.40 L 159.00 538.90 L 160.50 537.80 L 162.20 537.00 L 164.10 536.80 L 201.30 536.80 L 203.20 537.00 L 204.90 537.80 L 206.40 538.90 L 207.50 540.40 L 208.30 542.10 L 208.50 544.00 L 208.30 545.90 L 207.50 547.60 L 206.40 549.10 L 204.90 550.20 L 203.20 551.00 L 201.30 551.20 Z" fill="#ffffff" fill-rule="nonzero" node-id="59" stroke="none" target-height="14.400024" target-width="51.600006" target-x="156.9" target-y="536.8"/><path d="M 1511.90 493.40 L 1815.10 493.40 L 1817.30 493.60 L 1819.40 494.20 L 1821.30 495.10 L 1824.50 497.80 L 1826.70 501.50 L 1827.40 505.80 L 1827.40 873.30 L 1826.70 877.60 L 1824.50 881.30 L 1821.30 884.00 L 1817.30 885.50 L 1815.10 885.70 L 1511.90 885.70 L 1507.60 884.90 L 1505.70 884.00 L 1502.50 881.30 L 1500.30 877.60 L 1499.70 875.50 L 1499.50 873.30 L 1499.50 505.80 L 1500.30 501.50 L 1502.50 497.80 L 1505.70 495.10 L 1507.60 494.20 L 1511.90 493.40 Z" fill="#d2e9fe" fill-rule="nonzero" node-id="61" stroke="none" target-height="392.30002" target-width="327.90002" target-x="1499.5" target-y="493.4"/><path d="M 1436.90 436.60 L 1774.50 436.60 L 1778.80 437.40 L 1780.70 438.30 L 1783.90 441.10 L 1786.10 444.70 L 1786.80 449.00 L 1786.80 837.20 L 1786.60 839.40 L 1786.10 841.50 L 1783.90 845.10 L 1780.70 847.90 L 1778.80 848.80 L 1776.70 849.30 L 1774.50 849.60 L 1436.90 849.60 L 1434.60 849.30 L 1432.60 848.80 L 1430.70 847.90 L 1427.40 845.10 L 1425.30 841.50 L 1424.70 839.40 L 1424.50 837.20 L 1424.50 449.00 L 1425.30 444.70 L 1427.40 441.10 L 1430.70 438.30 L 1432.60 437.40 L 1436.90 436.60 Z" fill="#315bf4" fill-rule="nonzero" node-id="63" stroke="none" target-height="412.99997" target-width="362.30005" target-x="1424.5" target-y="436.6"/><path d="M 1522.60 759.70 L 1492.50 759.50 L 1488.50 758.00 L 1485.30 755.30 L 1483.10 751.70 L 1482.50 749.60 L 1482.30 747.40 L 1482.30 624.50 L 1483.10 620.20 L 1485.30 616.50 L 1488.50 613.80 L 1492.50 612.30 L 1494.70 612.10 L 1524.80 612.30 L 1526.90 612.90 L 1530.60 615.10 L 1533.30 618.30 L 1534.80 622.30 L 1535.00 624.50 L 1535.00 747.40 L 1534.20 751.70 L 1532.00 755.30 L 1528.80 758.00 L 1526.90 759.00 L 1524.80 759.50 L 1522.60 759.70 Z" fill="#ffffff" fill-rule="nonzero" node-id="65" stroke="none" target-height="147.60004" target-width="52.69995" target-x="1482.3" target-y="612.1"/><path d="M 1620.70 759.70 L 1590.50 759.50 L 1588.50 759.00 L 1584.80 756.80 L 1582.10 753.60 L 1581.20 751.70 L 1580.60 749.60 L 1580.40 747.40 L 1580.40 576.00 L 1581.20 571.70 L 1582.10 569.80 L 1584.80 566.50 L 1588.50 564.40 L 1592.80 563.60 L 1622.90 563.80 L 1625.00 564.40 L 1628.60 566.50 L 1631.30 569.80 L 1632.80 573.70 L 1633.00 576.00 L 1633.00 747.40 L 1632.30 751.70 L 1630.10 755.30 L 1626.90 758.00 L 1625.00 759.00 L 1620.70 759.70 Z" fill="#ff3f08" fill-rule="nonzero" node-id="67" stroke="none" target-height="196.10004" target-width="52.599976" target-x="1580.4" target-y="563.6"/><path d="M 1713.60 759.70 L 1683.40 759.50 L 1681.40 759.00 L 1677.70 756.80 L 1675.00 753.60 L 1674.10 751.70 L 1673.50 749.60 L 1673.30 747.40 L 1673.30 516.10 L 1673.50 513.90 L 1674.10 511.80 L 1676.20 508.20 L 1679.40 505.40 L 1683.40 504.00 L 1685.70 503.70 L 1715.80 504.00 L 1719.80 505.40 L 1723.00 508.20 L 1725.20 511.80 L 1725.70 513.90 L 1725.90 516.10 L 1725.90 747.40 L 1725.20 751.70 L 1723.00 755.30 L 1719.80 758.00 L 1717.90 759.00 L 1713.60 759.70 Z" fill="#ffffff" fill-rule="nonzero" node-id="69" stroke="none" target-height="256" target-width="52.599976" target-x="1673.3" target-y="503.7"/><path d="M 971.40 364.40 L 647.20 364.40 L 642.90 363.60 L 641.00 362.70 L 637.80 360.00 L 635.60 356.30 L 634.80 352.00 L 634.80 12.40 L 635.60 8.10 L 637.80 4.40 L 641.00 1.70 L 645.00 0.20 L 647.20 0.00 L 971.40 0.00 L 975.70 0.80 L 977.60 1.70 L 980.80 4.40 L 983.00 8.10 L 983.70 12.40 L 983.70 352.00 L 983.00 356.30 L 980.80 360.00 L 977.60 362.70 L 975.70 363.60 L 971.40 364.40 Z" fill="#d2e9fe" fill-rule="nonzero" node-id="71" stroke="none" target-height="364.4" target-width="348.90002" target-x="634.8" target-y="0"/><path d="M 880.50 69.20 L 692.60 69.20 L 690.40 68.90 L 688.50 68.00 L 686.80 66.70 L 685.50 65.10 L 684.70 63.10 L 684.40 60.90 L 684.70 58.70 L 685.50 56.70 L 686.80 55.10 L 688.50 53.80 L 690.40 52.90 L 692.60 52.60 L 880.50 52.60 L 882.70 52.90 L 884.70 53.80 L 886.30 55.10 L 887.60 56.70 L 888.50 58.70 L 888.80 60.90 L 888.50 63.10 L 887.60 65.10 L 886.30 66.70 L 884.70 68.00 L 882.70 68.90 L 880.50 69.20 Z" fill="#315bf4" fill-rule="nonzero" node-id="73" stroke="none" target-height="16.599998" target-width="204.39996" target-x="684.4" target-y="52.6"/><g node-id="123"><path d="M 820.10 95.60 L 890.20 165.70 L 892.70 169.30 L 893.40 171.30 L 893.80 175.50 L 892.70 179.60 L 890.20 183.20 L 820.10 253.30 L 816.50 255.80 L 812.40 256.90 L 808.20 256.50 L 804.30 254.70 L 802.60 253.30 L 732.50 183.20 L 730.00 179.60 L 729.30 177.60 L 729.00 173.40 L 730.00 169.30 L 732.50 165.70 L 802.60 95.60 L 806.20 93.10 L 810.30 92.10 L 814.50 92.40 L 816.50 93.10 L 820.10 95.60 Z" fill="#315bf4" fill-opacity="0.59" fill-rule="nonzero" group-id="2" node-id="77" stroke="none" target-height="164.79999" target-width="164.79999" target-x="729" target-y="92.1"/></g><g node-id="124"><path d="M 820.10 169.90 L 890.20 240.00 L 892.70 243.60 L 893.40 245.60 L 893.80 249.80 L 892.70 253.90 L 890.20 257.50 L 820.10 327.60 L 816.50 330.10 L 812.40 331.20 L 808.20 330.80 L 804.30 329.00 L 802.60 327.60 L 732.50 257.50 L 730.00 253.90 L 729.30 251.90 L 729.00 247.70 L 730.00 243.60 L 732.50 240.00 L 802.60 169.90 L 806.20 167.40 L 810.30 166.40 L 814.50 166.70 L 816.50 167.40 L 820.10 169.90 Z" fill="#315bf4" fill-opacity="0.59" fill-rule="nonzero" group-id="3" node-id="82" stroke="none" target-height="164.80002" target-width="164.79999" target-x="729" target-y="166.4"/></g><path d="M 809.30 292.10 L 1257.30 292.10 L 1260.70 292.40 L 1263.90 293.00 L 1266.90 294.10 L 1269.80 295.50 L 1272.40 297.30 L 1274.80 299.40 L 1276.90 301.80 L 1278.70 304.40 L 1280.10 307.30 L 1281.20 310.30 L 1281.80 313.50 L 1282.10 316.90 L 1282.10 533.70 L 1281.80 537.10 L 1281.20 540.30 L 1280.10 543.30 L 1278.70 546.20 L 1274.80 551.20 L 1272.40 553.30 L 1269.80 555.00 L 1266.90 556.50 L 1263.90 557.60 L 1260.70 558.20 L 1257.30 558.50 L 1028.70 558.50 L 945.50 647.20 L 946.60 558.50 L 809.30 558.50 L 805.90 558.20 L 802.70 557.60 L 799.70 556.50 L 796.80 555.00 L 794.20 553.30 L 789.70 548.80 L 787.90 546.20 L 786.50 543.30 L 785.40 540.30 L 784.80 537.10 L 784.50 533.70 L 784.50 316.90 L 784.80 313.50 L 785.40 310.30 L 786.50 307.30 L 787.90 304.40 L 789.70 301.80 L 794.20 297.30 L 796.80 295.50 L 799.70 294.10 L 802.70 293.00 L 805.90 292.40 L 809.30 292.10 Z" fill="#398cff" fill-rule="nonzero" node-id="85" stroke="none" target-height="355.1" target-width="497.59998" target-x="784.5" target-y="292.1"/><path d="M 924.90 506.80 L 932.20 506.50 L 939.20 505.70 L 946.00 504.30 L 952.60 502.40 L 959.10 499.90 L 965.30 497.00 L 971.10 493.70 L 976.70 489.90 L 982.00 485.70 L 986.90 481.10 L 991.50 476.20 L 995.70 470.90 L 999.50 465.30 L 1002.80 459.40 L 1005.70 453.30 L 1008.20 446.80 L 1010.10 440.20 L 1011.50 433.40 L 1012.30 426.40 L 1012.70 419.10 L 1012.30 411.80 L 1011.50 404.80 L 1010.10 398.00 L 1008.20 391.40 L 1005.70 384.90 L 1002.80 378.70 L 999.50 372.90 L 995.70 367.30 L 991.50 362.00 L 986.90 357.10 L 982.00 352.50 L 976.70 348.30 L 971.10 344.50 L 965.30 341.20 L 959.10 338.30 L 952.60 335.80 L 946.00 333.90 L 939.20 332.50 L 932.20 331.70 L 924.90 331.40 L 917.60 331.70 L 910.60 332.50 L 903.80 333.90 L 897.20 335.80 L 890.70 338.30 L 884.60 341.20 L 878.70 344.50 L 873.10 348.30 L 867.80 352.50 L 862.90 357.10 L 858.30 362.00 L 854.10 367.30 L 850.30 372.90 L 847.00 378.70 L 844.10 384.90 L 841.60 391.40 L 839.70 398.00 L 838.30 404.80 L 837.50 411.80 L 837.20 419.10 L 837.50 426.40 L 838.30 433.40 L 839.70 440.20 L 841.60 446.80 L 844.10 453.30 L 847.00 459.40 L 850.30 465.30 L 854.10 470.90 L 858.30 476.20 L 862.90 481.10 L 867.80 485.70 L 873.10 489.90 L 878.70 493.70 L 884.60 497.00 L 890.70 499.90 L 897.20 502.40 L 903.80 504.30 L 910.60 505.70 L 917.60 506.50 L 924.90 506.80 Z" fill="#ffffff" fill-rule="nonzero" node-id="87" stroke="none" target-height="175.4" target-width="175.5" target-x="837.2" target-y="331.4"/><path d="M 999.60 465.20 L 1002.50 460.10 L 1005.10 454.80 L 1007.30 449.20 L 1009.20 443.50 L 1010.70 437.60 L 1011.80 431.60 L 1012.40 425.50 L 1012.70 419.10 L 1012.40 412.10 L 1011.60 405.40 L 1010.30 398.90 L 1008.60 392.50 L 1006.30 386.30 L 1003.70 380.40 L 1000.60 374.70 L 997.10 369.30 L 924.70 417.60 L 999.60 465.20 Z" fill="#315bf4" fill-rule="nonzero" node-id="89" stroke="none" target-height="95.900024" target-width="88" target-x="924.7" target-y="369.3"/><path d="M 924.90 419.10 L 1002.00 377.20 L 998.20 370.80 L 993.90 364.90 L 989.10 359.30 L 983.80 354.10 L 978.20 349.40 L 972.10 345.10 L 965.70 341.40 L 959.00 338.20 L 951.90 335.60 L 940.90 332.80 L 929.30 331.50 L 924.90 419.10 Z" fill="#ff3f08" fill-rule="nonzero" node-id="91" stroke="none" target-height="87.600006" target-width="77.099976" target-x="924.9" target-y="331.5"/><path d="M 1052.00 343.90 L 1060.60 345.30 L 1069.10 347.80 L 1073.00 349.60 L 1076.70 352.00 L 1079.80 354.60 L 1082.50 357.60 L 1084.90 360.80 L 1090.60 372.40 L 1092.20 375.80 L 1095.00 386.80 L 1096.80 391.50 L 1099.40 395.00 L 1102.30 397.00 L 1103.90 397.60 L 1107.50 397.60 L 1109.30 397.10 L 1110.80 396.20 L 1113.40 393.90 L 1118.60 387.40 L 1128.00 371.40 L 1131.00 367.70 L 1138.00 360.50 L 1138.10 359.80 L 1137.60 359.20 L 1138.90 360.50 L 1144.90 370.20 L 1148.50 374.70 L 1153.20 378.80 L 1155.90 380.30 L 1158.60 381.20 L 1160.40 381.30 L 1162.20 381.00 L 1164.20 380.20 L 1168.00 377.80 L 1169.70 376.30 L 1177.60 364.90 L 1177.80 364.30 L 1176.10 364.00 L 1184.70 374.50 L 1187.00 376.90 L 1190.60 379.50 L 1192.70 380.40 L 1195.40 381.10 L 1200.90 381.00 L 1212.90 379.40 L 1220.40 377.80 L 1223.90 376.30 L 1225.50 375.20 L 1226.50 373.90 L 1227.00 372.60 L 1226.80 369.60 L 1225.20 366.90 L 1222.70 365.20 L 1221.10 364.90 L 1219.50 365.00 L 1213.50 366.90 L 1204.70 367.70 L 1198.60 368.70 L 1196.80 368.50 L 1195.50 367.80 L 1193.10 365.50 L 1186.50 356.90 L 1184.60 354.90 L 1181.10 352.50 L 1177.70 351.70 L 1173.90 352.30 L 1172.20 353.10 L 1170.00 354.70 L 1166.10 359.10 L 1160.50 367.20 L 1157.30 369.90 L 1161.10 369.00 L 1160.50 368.80 L 1156.10 364.60 L 1148.70 353.30 L 1146.60 350.90 L 1142.80 348.00 L 1139.20 347.00 L 1137.40 347.10 L 1135.40 347.60 L 1133.10 348.70 L 1130.60 350.50 L 1124.10 357.10 L 1117.20 364.90 L 1114.00 369.80 L 1111.10 376.20 L 1108.90 380.30 L 1106.00 383.30 L 1104.50 385.40 L 1108.20 386.60 L 1107.60 385.00 L 1107.00 381.30 L 1106.00 377.50 L 1098.00 358.90 L 1095.60 354.70 L 1092.80 350.80 L 1089.70 347.10 L 1086.20 343.80 L 1082.40 340.80 L 1078.20 338.30 L 1073.90 336.30 L 1069.30 334.80 L 1064.70 333.60 L 1055.20 331.90 L 1053.30 331.90 L 1051.70 332.30 L 1049.20 334.20 L 1048.30 335.50 L 1047.50 338.50 L 1048.00 341.30 L 1048.90 342.40 L 1050.10 343.30 L 1052.00 343.90 Z" fill="#ff3f08" fill-rule="nonzero" node-id="93" stroke="none" target-height="65.70001" target-width="179.5" target-x="1047.5" target-y="331.9"/><path d="M 1220.70 418.60 L 1152.50 418.60 L 1150.80 418.30 L 1149.40 417.70 L 1147.20 415.50 L 1146.60 414.10 L 1146.30 412.40 L 1146.60 410.70 L 1147.20 409.30 L 1149.40 407.00 L 1150.80 406.40 L 1152.50 406.20 L 1220.70 406.20 L 1222.30 406.40 L 1223.80 407.00 L 1226.00 409.30 L 1226.60 410.70 L 1226.80 412.40 L 1226.60 414.10 L 1226.00 415.50 L 1225.00 416.80 L 1223.80 417.70 L 1222.30 418.30 L 1220.70 418.60 Z" fill="#315bf4" fill-rule="nonzero" node-id="95" stroke="none" target-height="12.399994" target-width="80.5" target-x="1146.3" target-y="406.2"/><path d="M 1221.20 455.20 L 1043.60 455.20 L 1041.90 455.00 L 1040.50 454.40 L 1039.20 453.40 L 1038.30 452.10 L 1037.70 450.70 L 1037.40 449.00 L 1037.70 447.40 L 1038.30 445.90 L 1039.20 444.70 L 1040.50 443.70 L 1041.90 443.10 L 1043.60 442.80 L 1221.20 442.80 L 1222.80 443.10 L 1224.30 443.70 L 1225.50 444.70 L 1226.50 445.90 L 1227.10 447.40 L 1227.40 449.00 L 1227.10 450.70 L 1225.50 453.40 L 1224.30 454.40 L 1222.80 455.00 L 1221.20 455.20 Z" fill="#ffffff" fill-rule="nonzero" node-id="97" stroke="none" target-height="12.400024" target-width="190" target-x="1037.4" target-y="442.8"/><path d="M 1221.20 495.50 L 1080.80 495.50 L 1079.10 495.20 L 1077.70 494.60 L 1076.40 493.70 L 1075.40 492.40 L 1074.80 491.00 L 1074.60 489.30 L 1074.80 487.60 L 1075.40 486.20 L 1076.40 484.90 L 1077.70 483.90 L 1079.10 483.30 L 1080.80 483.10 L 1221.20 483.10 L 1222.80 483.30 L 1224.30 483.90 L 1225.50 484.90 L 1227.10 487.60 L 1227.40 489.30 L 1227.10 491.00 L 1226.50 492.40 L 1225.50 493.70 L 1224.30 494.60 L 1222.80 495.20 L 1221.20 495.50 Z" fill="#ffffff" fill-rule="nonzero" node-id="99" stroke="none" target-height="12.399994" target-width="152.80005" target-x="1074.6" target-y="483.1"/><path d="M 186.90 186.00 L 476.00 53.70 L 480.30 52.60 L 484.50 53.00 L 488.30 54.80 L 491.30 57.80 L 492.40 59.80 L 528.10 137.70 L 529.20 141.90 L 528.80 146.10 L 527.00 149.90 L 525.60 151.60 L 522.00 154.10 L 266.30 270.50 L 248.80 322.10 L 247.10 319.60 L 230.40 287.70 L 230.00 287.30 L 227.30 287.50 L 224.60 287.10 L 222.10 286.20 L 219.80 284.70 L 218.00 282.70 L 216.50 280.30 L 180.80 202.40 L 179.70 198.20 L 179.80 196.00 L 180.90 192.00 L 183.30 188.50 L 186.90 186.00 Z" fill="#398cff" fill-rule="nonzero" node-id="101" stroke="none" target-height="269.5" target-width="349.5" target-x="179.7" target-y="52.6"/><path d="M 278.70 218.80 L 281.70 218.60 L 284.50 217.80 L 287.00 216.60 L 289.40 214.90 L 291.30 213.00 L 293.00 210.70 L 294.20 208.10 L 294.90 205.30 L 295.20 202.30 L 294.90 199.30 L 294.20 196.50 L 293.00 194.00 L 291.30 191.70 L 289.40 189.70 L 287.00 188.10 L 284.50 186.80 L 281.70 186.10 L 278.70 185.80 L 275.70 186.10 L 272.90 186.80 L 270.40 188.10 L 268.10 189.70 L 266.10 191.70 L 264.40 194.00 L 263.20 196.50 L 262.50 199.30 L 262.20 202.30 L 262.50 205.30 L 263.20 208.10 L 264.40 210.70 L 266.10 213.00 L 268.10 214.90 L 270.40 216.60 L 272.90 217.80 L 275.70 218.60 L 278.70 218.80 Z" fill="#ffffff" fill-rule="nonzero" node-id="103" stroke="none" target-height="33" target-width="33" target-x="262.2" target-y="185.8"/><path d="M 332.40 195.10 L 335.40 194.80 L 338.20 194.10 L 340.70 192.80 L 343.00 191.20 L 345.00 189.20 L 346.60 186.90 L 347.90 184.40 L 348.60 181.60 L 348.90 178.60 L 348.60 175.60 L 347.90 172.80 L 346.60 170.20 L 345.00 167.90 L 343.00 166.00 L 340.70 164.30 L 338.20 163.10 L 335.40 162.30 L 332.40 162.10 L 329.40 162.30 L 326.60 163.10 L 324.10 164.30 L 321.70 166.00 L 319.80 167.90 L 318.10 170.20 L 316.90 172.80 L 316.20 175.60 L 315.90 178.60 L 316.20 181.60 L 316.90 184.40 L 318.10 186.90 L 319.80 189.20 L 321.70 191.20 L 324.10 192.80 L 326.60 194.10 L 329.40 194.80 L 332.40 195.10 Z" fill="#ffffff" fill-rule="nonzero" node-id="105" stroke="none" target-height="33" target-width="33" target-x="315.9" target-y="162.1"/><path d="M 386.10 171.40 L 389.10 171.10 L 391.80 170.30 L 394.40 169.10 L 396.70 167.50 L 398.70 165.50 L 400.30 163.20 L 401.50 160.60 L 402.30 157.90 L 402.60 154.80 L 402.30 151.80 L 401.50 149.10 L 400.30 146.50 L 398.70 144.20 L 396.70 142.20 L 394.40 140.60 L 391.80 139.40 L 389.10 138.60 L 386.10 138.30 L 383.00 138.60 L 380.30 139.40 L 377.70 140.60 L 375.40 142.20 L 373.40 144.20 L 371.80 146.50 L 370.60 149.10 L 369.80 151.80 L 369.50 154.80 L 369.80 157.90 L 370.60 160.60 L 371.80 163.20 L 373.40 165.50 L 375.40 167.50 L 377.70 169.10 L 380.30 170.30 L 383.00 171.10 L 386.10 171.40 Z" fill="#ffffff" fill-rule="nonzero" node-id="107" stroke="none" target-height="33.09999" target-width="33.100006" target-x="369.5" target-y="138.3"/><path d="M 438.70 148.60 L 441.70 148.40 L 444.50 147.60 L 447.00 146.40 L 449.40 144.70 L 451.30 142.80 L 453.00 140.50 L 454.20 137.90 L 454.90 135.10 L 455.20 132.10 L 454.90 129.10 L 454.20 126.40 L 453.00 123.80 L 451.30 121.50 L 449.40 119.50 L 447.00 117.90 L 444.50 116.60 L 441.70 115.90 L 438.70 115.60 L 435.70 115.90 L 432.90 116.60 L 430.40 117.90 L 428.10 119.50 L 426.10 121.50 L 424.40 123.80 L 423.20 126.40 L 422.50 129.10 L 422.20 132.10 L 422.50 135.10 L 423.20 137.90 L 424.40 140.50 L 426.10 142.80 L 428.10 144.70 L 430.40 146.40 L 432.90 147.60 L 435.70 148.40 L 438.70 148.60 Z" fill="#ffffff" fill-rule="nonzero" node-id="109" stroke="none" target-height="33.000008" target-width="33" target-x="422.2" target-y="115.6"/><path d="M 444.90 504.80 L 448.90 504.50 L 452.60 503.70 L 456.20 502.50 L 459.50 500.80 L 462.60 498.80 L 465.30 496.30 L 467.80 493.50 L 469.80 490.50 L 471.50 487.10 L 472.80 483.60 L 473.50 479.80 L 473.80 475.90 L 473.50 471.90 L 472.80 468.20 L 471.50 464.60 L 469.80 461.30 L 467.80 458.20 L 465.30 455.40 L 462.60 453.00 L 459.50 450.90 L 456.20 449.20 L 452.60 448.00 L 448.90 447.20 L 444.90 447.00 L 440.90 447.20 L 437.20 448.00 L 433.70 449.20 L 430.30 450.90 L 427.20 453.00 L 424.50 455.40 L 422.00 458.20 L 420.00 461.30 L 418.30 464.60 L 417.00 468.20 L 416.30 471.90 L 416.00 475.90 L 416.30 479.80 L 417.00 483.60 L 418.30 487.10 L 420.00 490.50 L 422.00 493.50 L 424.50 496.30 L 427.20 498.80 L 430.30 500.80 L 433.70 502.50 L 437.20 503.70 L 440.90 504.50 L 444.90 504.80 Z" fill="#d2e9fe" fill-rule="nonzero" node-id="111" stroke="none" target-height="57.799988" target-width="57.799988" target-x="416" target-y="447"/><path d="M 1582.50 103.20 L 1575.60 103.50 L 1569.00 104.30 L 1562.60 105.60 L 1556.30 107.40 L 1550.30 109.70 L 1544.50 112.50 L 1538.90 115.60 L 1533.70 119.20 L 1528.70 123.10 L 1524.10 127.40 L 1519.80 132.00 L 1515.80 137.00 L 1512.20 142.30 L 1509.10 147.80 L 1506.40 153.60 L 1504.10 159.70 L 1502.30 165.90 L 1501.00 172.30 L 1500.20 178.90 L 1499.90 185.80 L 1500.20 192.70 L 1501.00 199.30 L 1502.30 205.70 L 1504.10 211.90 L 1506.40 218.00 L 1509.10 223.80 L 1512.20 229.30 L 1515.80 234.60 L 1519.80 239.60 L 1524.10 244.20 L 1528.70 248.50 L 1533.70 252.50 L 1538.90 256.00 L 1544.50 259.20 L 1550.30 261.90 L 1556.30 264.20 L 1562.60 266.00 L 1569.00 267.30 L 1575.60 268.10 L 1582.50 268.40 L 1589.30 268.10 L 1595.90 267.30 L 1602.30 266.00 L 1608.60 264.20 L 1614.60 261.90 L 1620.40 259.20 L 1626.00 256.00 L 1631.20 252.50 L 1636.20 248.50 L 1640.80 244.20 L 1645.10 239.60 L 1649.10 234.60 L 1652.70 229.30 L 1655.80 223.80 L 1658.50 218.00 L 1660.80 211.90 L 1662.60 205.70 L 1663.90 199.30 L 1664.70 192.70 L 1665.00 185.80 L 1664.70 178.90 L 1663.90 172.30 L 1662.60 165.90 L 1660.80 159.70 L 1658.50 153.60 L 1655.80 147.80 L 1652.70 142.30 L 1649.10 137.00 L 1645.10 132.00 L 1640.80 127.40 L 1636.20 123.10 L 1631.20 119.20 L 1626.00 115.60 L 1620.40 112.50 L 1614.60 109.70 L 1608.60 107.40 L 1602.30 105.60 L 1595.90 104.30 L 1589.30 103.50 L 1582.50 103.20 Z M 1582.50 220.90 L 1577.60 220.60 L 1573.10 219.60 L 1568.80 218.10 L 1564.70 216.10 L 1561.00 213.60 L 1557.60 210.60 L 1554.70 207.30 L 1552.20 203.50 L 1550.10 199.50 L 1548.60 195.20 L 1547.70 190.60 L 1547.40 185.80 L 1547.70 181.00 L 1548.60 176.40 L 1550.10 172.10 L 1552.20 168.10 L 1554.70 164.40 L 1557.60 161.00 L 1561.00 158.00 L 1564.70 155.50 L 1568.80 153.50 L 1573.10 152.00 L 1577.60 151.00 L 1582.50 150.70 L 1587.30 151.00 L 1591.80 152.00 L 1596.10 153.50 L 1600.20 155.50 L 1603.90 158.00 L 1607.30 161.00 L 1610.20 164.40 L 1612.70 168.10 L 1614.80 172.10 L 1616.30 176.40 L 1617.20 181.00 L 1617.60 185.80 L 1617.20 190.60 L 1616.30 195.20 L 1614.80 199.50 L 1612.70 203.50 L 1610.20 207.30 L 1607.30 210.60 L 1603.90 213.60 L 1600.20 216.10 L 1596.10 218.10 L 1591.80 219.60 L 1587.30 220.60 L 1582.50 220.90 Z" fill="#315bf4" fill-rule="nonzero" node-id="113" stroke="none" target-height="165.2" target-width="165.09998" target-x="1499.9" target-y="103.2"/><g node-id="125"><path d="M 1582.50 268.40 L 1589.10 268.10 L 1595.50 267.40 L 1601.70 266.10 L 1607.70 264.50 L 1613.60 262.30 L 1619.20 259.80 L 1624.60 256.80 L 1629.80 253.50 L 1634.70 249.80 L 1639.20 245.80 L 1643.50 241.40 L 1647.50 236.70 L 1651.10 231.80 L 1654.30 226.60 L 1657.10 221.10 L 1659.60 215.40 L 1661.60 209.50 L 1663.10 203.40 L 1664.20 197.10 L 1664.90 190.60 L 1617.50 187.90 L 1616.90 192.40 L 1615.80 196.70 L 1614.20 200.80 L 1612.10 204.60 L 1609.50 208.10 L 1606.60 211.30 L 1603.30 214.10 L 1599.60 216.40 L 1595.70 218.30 L 1591.50 219.70 L 1587.10 220.60 L 1582.50 220.90 L 1577.70 220.60 L 1573.20 219.70 L 1568.80 218.20 L 1564.80 216.10 L 1540.90 257.20 L 1547.10 260.50 L 1553.70 263.20 L 1560.60 265.40 L 1571.20 267.60 L 1582.50 268.40 Z" fill="#ffffff" fill-opacity="0.48" fill-rule="nonzero" group-id="4" node-id="117" stroke="none" target-height="80.5" target-width="124" target-x="1540.9" target-y="187.9"/></g><path d="M 1664.70 193.50 L 1665.00 185.80 L 1664.80 179.40 L 1664.10 173.20 L 1662.90 167.20 L 1661.40 161.40 L 1659.40 155.70 L 1657.00 150.20 L 1654.20 144.90 L 1651.10 139.90 L 1647.60 135.10 L 1643.80 130.60 L 1639.80 126.40 L 1635.30 122.40 L 1630.70 118.80 L 1625.80 115.50 L 1620.60 112.60 L 1615.20 110.00 L 1596.40 153.60 L 1600.40 155.60 L 1604.10 158.20 L 1607.40 161.10 L 1610.30 164.50 L 1612.80 168.20 L 1614.80 172.20 L 1616.30 176.50 L 1617.20 181.00 L 1617.60 185.80 L 1617.40 189.10 L 1664.70 193.50 Z" fill="#ff3f08" fill-rule="nonzero" node-id="120" stroke="none" target-height="83.5" target-width="68.599976" target-x="1596.4" target-y="110"/></svg>