<?xml version="1.0" standalone="no"?><!DOCTYPE svg PUBLIC "-//W3C//DTD SVG 1.1//EN" "http://www.w3.org/Graphics/SVG/1.1/DTD/svg11.dtd"><svg height="126" node-id="1" sillyvg="true" template-height="126" template-width="126" version="1.1" viewBox="0 0 126 126" width="126" xmlns="http://www.w3.org/2000/svg" xmlns:xlink="http://www.w3.org/1999/xlink"><defs node-id="239"></defs><g node-id="846"><g node-id="847"><path d="M 105.73 72.04 C 104.24 72.26 90.07 67.61 88.57 61.27 C 87.07 54.91 75.74 48.30 70.91 49.93 C 66.09 51.57 59.76 49.82 59.76 49.82 L 55.77 47.89 L 54.87 47.46 L 54.86 47.46 L 4.49 76.54 C -0.15 79.22 -0.16 85.92 4.47 88.61 L 54.69 117.80 C 59.01 120.32 64.35 120.32 68.68 117.82 L 120.76 87.75 C 122.41 86.80 123.79 85.38 124.51 83.62 C 128.49 73.87 107.10 71.85 105.73 72.04 Z" fill="#f3f6fd" fill-rule="nonzero" group-id="1,2" node-id="249" stroke="none" target-height="72.8648" target-width="128.6555" target-x="-0.1644" target-y="47.4581"></path><g node-id="849"><path d="M 51.10 88.11 C 50.23 88.00 48.74 88.26 48.75 88.27 C 48.41 88.57 47.54 89.55 47.03 90.22 C 46.85 90.45 46.71 90.69 46.63 90.92 C 45.55 94.06 43.63 94.50 43.00 95.81 C 42.60 96.62 42.27 96.84 41.99 97.19 C 42.63 97.04 43.21 96.94 43.57 96.95 C 45.07 97.03 45.68 99.38 45.68 99.38 C 45.67 99.39 45.64 99.40 45.59 99.42 C 45.75 99.58 45.45 100.29 45.36 100.10 C 45.34 100.07 45.43 99.78 45.42 99.78 C 45.38 99.78 45.35 99.79 45.34 99.82 C 45.22 100.43 44.97 100.38 45.01 100.28 C 45.02 100.23 45.11 99.93 45.11 99.91 L 45.10 99.91 C 45.09 99.91 45.08 99.92 45.07 99.94 C 45.04 99.97 44.94 100.29 44.91 100.39 C 44.90 100.41 44.85 100.44 44.81 100.45 C 44.80 100.44 44.80 100.44 44.79 100.45 C 44.67 100.45 44.77 100.07 44.82 99.98 C 44.82 99.98 44.82 99.98 44.80 99.98 C 44.79 99.98 44.77 99.99 44.76 100.01 C 44.73 100.05 44.68 100.28 44.67 100.35 C 44.67 100.37 44.62 100.40 44.58 100.41 L 44.57 100.41 C 44.54 100.41 44.51 100.41 44.52 100.38 C 44.53 100.31 44.44 100.18 44.56 99.99 C 44.63 99.88 44.61 99.86 44.59 99.86 C 44.49 99.89 44.33 100.11 44.06 100.15 C 44.02 100.16 43.98 100.17 43.96 100.16 C 43.96 100.15 44.02 100.11 44.11 100.06 C 44.18 100.01 44.34 99.85 44.35 99.85 C 44.75 99.53 44.72 99.57 44.79 99.47 C 44.75 99.47 44.72 99.47 44.69 99.46 C 44.69 99.46 43.30 97.92 43.30 97.81 C 43.30 97.82 41.30 98.36 40.30 98.68 C 40.17 98.73 40.01 98.76 39.86 98.78 L 39.85 98.78 C 39.66 98.84 39.44 98.82 38.62 98.85 C 38.50 98.97 38.34 99.08 38.17 99.14 C 38.70 100.03 38.13 100.40 37.87 100.56 C 37.60 100.73 37.49 100.97 37.49 100.97 L 37.45 100.96 C 36.85 101.53 34.80 101.49 34.19 100.95 C 33.35 100.12 33.44 100.75 34.64 99.12 C 34.75 98.96 34.81 98.77 34.95 98.62 C 33.77 98.13 36.32 96.83 37.80 95.15 C 38.98 93.78 38.55 93.48 39.90 92.72 C 40.62 92.30 42.32 90.69 42.57 90.32 C 42.87 89.85 44.76 86.75 44.76 86.75 C 44.77 86.75 45.41 86.39 45.71 86.30 C 46.05 86.20 46.56 85.27 47.19 85.50 C 47.20 85.51 47.22 85.51 47.23 85.52 L 47.12 86.08 L 44.70 89.70 C 44.70 89.70 47.06 88.45 47.87 87.15 L 47.83 87.56 C 47.86 87.41 48.00 87.00 48.37 86.89 C 48.79 86.76 49.47 87.11 50.35 87.24 C 50.53 87.27 50.69 87.30 50.84 87.35 C 51.16 87.45 51.68 86.80 51.79 87.01 C 51.79 87.01 52.03 88.23 51.10 88.11 Z" fill="#e1e9f4" fill-rule="nonzero" group-id="1,2,4" node-id="253" stroke="none" target-height="16.2585" target-width="18.6759" target-x="33.3526" target-y="85.269"></path></g><path d="M 33.73 76.46 C 33.28 76.51 31.58 78.28 30.90 78.05 C 30.80 78.14 28.62 80.20 28.76 80.07 C 27.01 81.73 27.20 83.10 24.61 84.49 C 24.61 84.49 23.61 85.40 22.90 86.11 C 27.09 85.59 25.95 86.98 27.41 87.25 C 27.79 87.31 28.07 87.53 28.07 87.53 C 28.11 87.61 27.79 87.99 27.66 87.92 C 27.54 87.86 27.30 87.72 27.14 87.63 C 27.14 87.94 26.74 88.02 26.78 87.92 C 26.80 87.86 26.78 87.78 26.74 87.72 C 26.68 87.63 26.72 87.49 26.72 87.49 C 26.72 87.49 26.73 87.48 26.74 87.47 C 26.25 87.30 25.18 86.94 25.01 86.78 C 24.41 86.27 22.03 87.57 20.93 87.67 C 20.32 87.87 17.88 88.22 18.14 88.53 C 18.21 88.63 18.38 88.57 18.50 88.67 C 18.78 88.91 18.34 89.33 17.87 89.65 C 17.97 90.08 17.49 90.46 15.16 90.17 C 13.39 89.94 14.52 89.10 14.68 88.95 C 14.80 88.82 15.15 88.64 15.46 88.42 C 15.62 88.37 15.81 88.34 16.01 88.31 C 15.83 88.29 15.42 88.22 15.32 88.12 C 14.18 87.65 15.77 86.90 16.93 86.47 C 18.53 85.51 19.43 84.73 19.65 84.30 C 19.65 84.30 19.18 83.49 21.70 81.99 C 23.73 80.78 24.03 79.45 25.75 78.14 C 25.76 78.14 27.13 74.71 27.13 74.71 C 27.13 74.71 27.31 74.40 28.39 74.73 L 30.15 74.03 C 27.49 76.97 26.41 80.37 26.34 80.60 L 30.48 76.25 L 30.51 76.51 C 31.33 76.74 33.34 75.13 33.91 75.42 C 34.07 75.51 34.04 76.43 33.73 76.46 Z" fill="#e1e9f4" fill-rule="nonzero" group-id="1,2" node-id="256" stroke="none" target-height="16.430298" target-width="20.68" target-x="13.3885" target-y="74.029"></path><path d="M 92.13 95.40 L 92.12 97.34 C 92.12 97.53 91.99 97.72 91.74 97.88 L 83.47 102.68 C 82.96 102.98 82.13 102.98 81.62 102.68 L 71.11 96.61 C 70.85 96.47 70.72 96.28 70.72 96.09 L 70.73 94.13 C 70.73 93.94 70.86 93.75 71.11 93.61 L 79.39 88.80 C 79.89 88.50 80.72 88.50 81.23 88.80 L 91.74 94.86 C 92.00 95.01 92.13 95.21 92.13 95.40 Z" fill="#e1e9f4" fill-rule="nonzero" group-id="1,2" node-id="258" stroke="none" target-height="14.4897995" target-width="21.410004" target-x="70.7185" target-y="88.4952"></path><path d="M 62.76 105.66 C 62.70 105.61 62.38 105.55 62.31 105.55 C 63.15 105.46 61.86 105.29 61.01 105.44 C 61.07 105.41 61.13 105.39 61.20 105.37 C 61.20 105.37 58.38 104.87 57.09 104.93 C 61.50 100.99 58.33 102.89 62.68 98.86 C 64.13 98.86 63.88 98.60 63.98 98.58 C 63.90 98.50 63.70 98.44 63.47 98.39 C 64.23 98.24 65.02 97.45 65.94 97.43 C 67.04 97.41 67.28 96.68 67.28 96.68 C 67.13 96.52 66.51 96.43 66.13 96.39 C 65.95 96.36 65.75 96.36 65.53 96.36 C 64.48 96.36 63.27 95.75 62.78 95.90 C 62.37 96.03 61.90 95.62 61.84 95.77 C 60.97 95.74 61.32 95.88 60.90 96.02 C 60.42 96.17 59.25 98.80 59.24 98.89 L 59.24 98.89 L 59.21 98.89 C 59.21 98.89 56.78 100.45 55.96 101.49 C 54.50 103.37 52.17 103.70 51.78 104.67 C 51.36 105.04 51.02 105.44 50.51 105.93 C 50.41 105.97 49.78 106.16 49.45 106.45 C 48.79 107.02 47.73 108.01 47.60 108.20 C 47.60 108.20 47.37 108.51 47.83 108.58 C 47.84 108.58 47.83 108.59 47.85 108.58 C 48.13 108.70 48.59 108.68 48.59 108.68 L 48.57 108.70 C 47.81 108.83 47.62 109.12 47.29 109.31 C 46.02 110.10 46.53 110.29 46.53 110.29 C 46.96 110.76 50.71 110.55 50.39 109.91 C 52.40 108.67 51.01 108.74 50.91 108.66 C 50.63 108.43 52.87 107.95 53.34 107.81 C 53.44 107.76 55.00 107.57 56.88 105.85 C 57.00 105.74 57.35 105.65 57.59 105.67 C 58.41 105.74 60.13 105.81 60.50 105.81 C 60.50 105.81 60.50 105.80 60.52 105.77 C 60.54 105.99 61.44 106.24 61.48 106.15 C 61.60 106.05 61.38 105.97 61.21 105.94 C 61.11 105.92 61.30 105.82 61.70 105.89 C 62.16 105.96 62.49 105.92 62.51 105.92 C 62.51 105.92 62.55 105.90 62.56 105.88 C 62.55 105.86 62.51 105.82 62.26 105.79 C 62.28 105.79 62.75 105.82 62.74 105.76 C 62.75 105.74 62.74 105.73 62.70 105.71 C 62.70 105.71 62.66 105.70 62.49 105.69 C 62.59 105.69 62.75 105.69 62.76 105.66 Z" fill="#e1e9f4" fill-rule="nonzero" group-id="1,2,5" node-id="262" stroke="none" target-height="15.137901" target-width="21.253399" target-x="46.0238" target-y="95.6242"></path><path d="M 103.18 90.48 L 101.65 90.77 L 102.61 92.60 L 101.18 92.90 L 97.18 91.33 L 93.41 91.37 L 93.92 89.82 L 90.62 88.00 L 92.05 87.70 L 95.54 88.19 L 96.66 87.45 L 98.10 87.15 L 100.25 89.07 L 104.62 90.17 Z" fill="#e1e9f4" fill-rule="nonzero" group-id="1,2,6,14,24,46" node-id="273" stroke="none" target-height="5.7468033" target-width="14.000603" target-x="90.6176" target-y="87.1506"></path><path d="M 1.05 81.75 L 27.22 96.96 L 36.48 91.61 L 7.53 74.79 L 8.09 74.46 L 37.03 91.29 L 46.38 85.89 L 17.43 69.07 L 17.83 68.84 L 46.78 85.66 L 56.20 80.22 L 27.25 63.40 L 27.64 63.17 L 56.59 80.00 L 65.93 74.60 L 36.98 57.78 L 37.54 57.46 L 66.49 74.28 L 75.75 68.93 L 46.80 52.11 L 47.36 51.79 L 115.24 90.94 L 114.68 91.26 L 76.19 69.19 L 66.93 74.54 L 105.42 96.61 L 104.86 96.93 L 66.37 74.86 L 37.47 91.54 L 75.96 113.62 L 75.41 113.94 L 36.92 91.86 L 27.66 97.21 L 65.78 119.07 C 65.54 119.15 65.29 119.22 65.04 119.28 L 1.01 82.36 C 1.02 82.15 1.03 81.95 1.05 81.75 Z" fill="#fdfeff" fill-rule="nonzero" group-id="1,2" node-id="279" stroke="none" target-height="67.4951" target-width="114.224396" target-x="1.0137" target-y="51.7873"></path></g><g node-id="848"><g node-id="852"><g node-id="860"><g node-id="870"><g node-id="892"><g node-id="908"><g node-id="928"><g node-id="962"><path d="M 84.44 36.07 L 84.34 78.10 C 84.34 78.56 84.17 78.88 83.91 79.03 L 81.77 80.27 L 81.75 80.28 C 81.48 80.44 81.12 80.42 80.72 80.19 L 33.85 53.12 C 33.04 52.66 32.40 51.54 32.40 50.62 L 32.49 10.44 L 32.50 10.45 L 32.50 8.59 C 32.51 8.13 32.68 7.80 32.94 7.66 C 32.96 7.65 32.97 7.64 32.99 7.63 L 35.09 6.41 C 35.35 6.25 35.72 6.27 36.12 6.51 L 83.00 33.57 C 83.80 34.03 84.44 35.15 84.44 36.07 Z" fill="#a6c2ff" fill-rule="nonzero" group-id="1,3,7,15,25,47,63,83,117" node-id="298" stroke="none" target-height="74.186" target-width="52.044697" target-x="32.3995" target-y="6.2533"></path></g></g></g></g><path d="M 33.99 15.22 L 33.91 51.42 L 80.67 78.41 L 80.75 42.22 Z" fill="#ffffff" fill-rule="nonzero" group-id="1,3,7,15,25" node-id="304" stroke="none" target-height="63.190998" target-width="46.8471" target-x="33.9066" target-y="15.2214"></path><path d="M 84.44 36.07 L 84.34 78.11 C 84.34 78.56 84.17 78.88 83.91 79.03 L 81.75 80.29 C 82.01 80.13 82.18 79.82 82.18 79.36 L 82.28 37.33 C 82.29 36.41 81.64 35.29 80.84 34.83 L 33.96 7.76 C 33.56 7.53 33.19 7.51 32.93 7.66 L 35.09 6.41 C 35.35 6.25 35.72 6.27 36.12 6.51 L 83.00 33.57 C 83.80 34.03 84.44 35.15 84.44 36.07 Z" fill="#1e72c6" fill-rule="nonzero" group-id="1,3,7,15,25,48,64,84,118" node-id="314" stroke="none" target-height="74.0346" target-width="51.5131" target-x="32.9309" target-y="6.2521"></path><path d="M 80.84 34.83 C 81.64 35.29 82.29 36.41 82.28 37.33 L 82.27 41.35 L 32.49 12.61 L 32.51 8.59 C 32.51 7.67 33.16 7.30 33.96 7.76 L 80.84 34.83 Z" fill="#3887e5" fill-rule="nonzero" group-id="1,3,7,15,25,48,64,84,119" node-id="319" stroke="none" target-height="34.048" target-width="49.7961" target-x="32.4895" target-y="7.3001"></path><path d="M 72.54 31.94 C 73.11 32.27 73.57 33.06 73.57 33.72 C 73.56 34.37 73.10 34.64 72.53 34.31 C 71.96 33.98 71.50 33.18 71.51 32.53 C 71.51 31.87 71.97 31.61 72.54 31.94 Z" fill="#a6c2ff" fill-rule="nonzero" group-id="1,3,7,15,25,48,64,84,120,127" node-id="326" stroke="none" target-height="3.0242004" target-width="2.063797" target-x="71.5034" target-y="31.612"></path><path d="M 75.86 33.86 C 76.43 34.19 76.89 34.98 76.89 35.63 C 76.88 36.29 76.42 36.55 75.85 36.22 C 75.28 35.90 74.82 35.10 74.83 34.45 C 74.83 33.79 75.29 33.53 75.86 33.86 Z" fill="#a6c2ff" fill-rule="nonzero" group-id="1,3,7,15,25,48,64,84,120,128" node-id="331" stroke="none" target-height="3.0242004" target-width="2.0638046" target-x="74.8238" target-y="33.5281"></path><path d="M 79.18 35.77 C 79.75 36.10 80.21 36.90 80.20 37.55 C 80.20 38.20 79.74 38.47 79.17 38.14 C 78.60 37.81 78.14 37.01 78.14 36.36 C 78.15 35.71 78.61 35.44 79.18 35.77 Z" fill="#a6c2ff" fill-rule="nonzero" group-id="1,3,7,15,25,48,64,84,120,129" node-id="336" stroke="none" target-height="3.0252" target-width="2.063797" target-x="78.1425" target-y="35.4441"></path></g><g node-id="871"><g node-id="894"><g node-id="910"><path d="M 43.75 32.51 L 43.81 32.43 L 43.96 32.71 L 43.65 35.28 C 43.04 32.87 42.72 30.36 42.70 30.22 L 42.72 30.32 C 42.81 30.55 43.09 31.66 43.75 32.51 Z" fill="#ffffff" fill-rule="nonzero" group-id="1,3,7,15,26,49,65" node-id="350" stroke="none" target-height="5.054098" target-width="1.2570992" target-x="42.6992" target-y="30.2231"></path></g><g node-id="911"><path d="M 42.70 30.22 C 42.72 30.36 43.04 32.87 43.65 35.28 C 43.81 35.91 43.98 36.52 44.18 37.06 C 44.10 36.92 42.63 34.30 41.81 31.90 L 42.64 31.86 L 41.66 30.87 C 41.68 30.85 42.01 30.39 42.70 30.22 Z" fill="#a6c2ff" fill-rule="nonzero" group-id="1,3,7,15,26,49,66" node-id="355" stroke="none" target-height="6.8401012" target-width="2.5186005" target-x="41.6602" target-y="30.2231"></path></g><g node-id="912"><path d="M 44.19 31.92 L 44.58 32.87 L 44.43 32.98 L 44.72 35.89 C 44.56 36.34 44.38 36.74 44.18 37.06 C 43.98 36.52 43.81 35.91 43.65 35.28 L 43.96 32.71 L 43.81 32.43 L 44.19 31.92 Z" fill="#a0533f" fill-rule="nonzero" group-id="1,3,7,15,26,49,67" node-id="360" stroke="none" target-height="5.1455" target-width="1.0748978" target-x="43.6472" target-y="31.9178"></path></g><g node-id="913"><path d="M 43.14 30.14 C 43.22 30.26 43.30 30.37 43.38 30.48 C 43.64 31.04 44.17 31.87 44.19 31.92 L 43.81 32.43 L 43.75 32.51 C 43.09 31.66 42.81 30.55 42.72 30.32 L 42.70 30.22 L 43.14 30.14 Z" fill="#dee7f8" fill-rule="nonzero" group-id="1,3,7,15,26,49,68" node-id="365" stroke="none" target-height="2.3731003" target-width="1.4942017" target-x="42.6992" target-y="30.1381"></path></g><g node-id="914"><path d="M 45.01 31.42 C 44.75 31.67 44.22 31.91 44.19 31.92 C 44.17 31.87 43.64 31.04 43.38 30.48 C 43.64 30.80 43.91 31.07 44.20 31.24 C 44.48 31.40 44.76 31.45 45.01 31.42 Z" fill="#d390a1" fill-rule="nonzero" group-id="1,3,7,15,26,49,69" node-id="370" stroke="none" target-height="1.4401016" target-width="1.623497" target-x="43.3841" target-y="30.4777"></path></g><g node-id="915"><path d="M 45.25 31.35 L 45.70 31.95 L 45.69 31.97 L 45.67 32.02 C 45.58 32.15 45.29 32.94 44.64 33.02 L 44.58 32.87 L 44.19 31.92 C 44.22 31.91 44.75 31.67 45.01 31.42 C 45.09 31.40 45.17 31.38 45.25 31.35 Z" fill="#dee7f8" fill-rule="nonzero" group-id="1,3,7,15,26,49,70" node-id="375" stroke="none" target-height="1.6701984" target-width="1.5028" target-x="44.1933" target-y="31.3532"></path></g><g node-id="916"><path d="M 45.70 31.96 C 46.38 32.91 46.71 33.76 46.73 33.80 L 45.74 33.65 L 46.58 34.66 C 45.74 36.09 44.26 37.01 44.18 37.06 C 44.38 36.74 44.56 36.34 44.72 35.89 C 45.31 34.28 45.65 32.19 45.69 31.97 L 45.70 31.96 Z" fill="#a6c2ff" fill-rule="nonzero" group-id="1,3,7,15,26,49,71" node-id="380" stroke="none" target-height="5.1079025" target-width="2.5491982" target-x="44.1789" target-y="31.9553"></path></g><path d="M 43.10 24.39 C 43.41 24.57 43.78 24.81 44.21 25.14 C 45.33 25.99 46.43 27.06 46.43 28.45 L 46.43 28.49 C 46.48 28.84 46.56 29.31 46.47 29.67 C 46.43 29.95 46.29 30.12 46.18 30.37 C 46.36 29.41 46.18 28.83 46.17 28.80 C 45.79 28.04 45.39 27.65 45.06 27.46 C 44.64 27.22 44.35 27.28 44.34 27.28 C 43.98 26.93 43.68 26.69 43.43 26.55 C 42.70 26.13 42.39 26.43 42.25 26.54 C 42.23 26.58 42.18 26.74 42.16 27.04 C 42.15 27.28 42.15 27.62 42.22 28.08 C 42.21 28.04 42.20 28.00 42.19 27.96 C 42.09 27.63 41.97 27.34 41.94 27.06 C 41.85 26.59 41.93 26.21 41.98 25.92 L 41.99 25.89 C 41.97 25.88 41.64 25.16 41.62 24.61 C 41.60 24.06 41.89 23.69 43.10 24.39 Z" fill="#2a2a5e" fill-rule="nonzero" group-id="1,3,7,15,26,49,72" node-id="385" stroke="none" target-height="6.6784" target-width="4.957901" target-x="41.6028" target-y="23.6892"></path></g><g node-id="895"><g node-id="918"><g node-id="930"><path d="M 70.04 47.69 L 70.10 47.61 L 70.25 47.89 L 69.94 50.46 C 69.36 48.17 69.03 45.68 69.00 45.43 L 69.02 45.50 C 69.11 45.73 69.39 46.85 70.04 47.69 Z" fill="#ffffff" fill-rule="nonzero" group-id="1,3,7,15,26,50,73,85" node-id="395" stroke="none" target-height="5.034401" target-width="1.2505035" target-x="68.9984" target-y="45.4268"></path></g><g node-id="931"><path d="M 68.99 45.41 L 69.00 45.43 C 69.03 45.68 69.36 48.17 69.94 50.46 C 70.10 51.09 70.28 51.70 70.48 52.25 C 70.40 52.11 68.93 49.48 68.10 47.08 L 68.94 47.04 L 67.96 46.06 C 67.97 46.03 68.31 45.58 68.99 45.41 Z" fill="#a6c2ff" fill-rule="nonzero" group-id="1,3,7,15,26,50,73,86" node-id="400" stroke="none" target-height="6.8392982" target-width="2.5186005" target-x="67.9569" target-y="45.4062"></path></g><g node-id="932"><path d="M 71.97 47.20 L 71.99 47.13 C 71.97 47.25 71.64 49.38 71.02 51.08 L 70.72 48.16 L 70.87 48.05 L 70.93 48.20 C 71.59 48.12 71.87 47.33 71.97 47.20 Z" fill="#ffffff" fill-rule="nonzero" group-id="1,3,7,15,26,50,73,87" node-id="405" stroke="none" target-height="3.9486008" target-width="1.2670975" target-x="70.7218" target-y="47.1336"></path></g><g node-id="933"><path d="M 70.49 47.10 L 70.87 48.05 L 70.72 48.16 L 71.02 51.08 C 70.85 51.52 70.67 51.93 70.48 52.25 C 70.28 51.70 70.10 51.09 69.94 50.46 L 70.25 47.89 L 70.10 47.61 L 70.49 47.10 Z" fill="#a0533f" fill-rule="nonzero" group-id="1,3,7,15,26,50,73,88" node-id="410" stroke="none" target-height="5.145298" target-width="1.0728989" target-x="69.9429" target-y="47.1002"></path></g><g node-id="934"><path d="M 69.44 45.32 C 69.52 45.44 69.60 45.56 69.68 45.66 C 69.94 46.22 70.46 47.06 70.49 47.10 L 70.10 47.61 L 70.04 47.69 C 69.39 46.85 69.11 45.73 69.02 45.50 L 69.00 45.43 L 68.99 45.41 L 69.44 45.32 Z" fill="#dee7f8" fill-rule="nonzero" group-id="1,3,7,15,26,50,73,89" node-id="415" stroke="none" target-height="2.3711967" target-width="1.4972992" target-x="68.9927" target-y="45.3202"></path></g><g node-id="935"><path d="M 71.31 46.60 C 71.05 46.85 70.52 47.09 70.49 47.10 C 70.46 47.06 69.94 46.22 69.68 45.66 C 69.93 45.99 70.21 46.25 70.49 46.42 C 70.78 46.58 71.05 46.63 71.31 46.60 Z" fill="#d390a1" fill-rule="nonzero" group-id="1,3,7,15,26,50,73,90" node-id="420" stroke="none" target-height="1.4361" target-width="1.623497" target-x="69.6826" target-y="45.6641"></path></g><g node-id="936"><path d="M 71.54 46.53 L 71.99 47.13 L 71.97 47.20 C 71.87 47.33 71.59 48.12 70.93 48.20 L 70.87 48.05 L 70.49 47.10 C 70.52 47.09 71.05 46.85 71.31 46.60 C 71.39 46.58 71.47 46.56 71.54 46.53 Z" fill="#dee7f8" fill-rule="nonzero" group-id="1,3,7,15,26,50,73,91" node-id="425" stroke="none" target-height="1.6697006" target-width="1.4960022" target-x="70.49" target-y="46.5338"></path></g><g node-id="937"><path d="M 71.99 47.13 C 72.67 48.09 73.00 48.94 73.02 48.98 L 72.04 48.83 L 72.87 49.84 C 72.04 51.27 70.55 52.20 70.48 52.25 C 70.67 51.93 70.85 51.52 71.02 51.08 C 71.64 49.38 71.97 47.25 71.99 47.13 Z" fill="#a6c2ff" fill-rule="nonzero" group-id="1,3,7,15,26,50,73,92" node-id="430" stroke="none" target-height="5.1119995" target-width="2.5452957" target-x="70.4755" target-y="47.1335"></path></g><g node-id="938"><path d="M 71.99 47.13 L 74.28 49.24 C 75.02 49.92 75.53 50.95 75.53 51.79 L 75.52 54.85 C 75.51 55.54 75.03 55.82 74.43 55.47 L 66.51 50.90 C 65.91 50.55 65.43 49.71 65.43 49.03 L 65.44 45.97 C 65.44 45.13 65.95 44.68 66.70 44.86 L 68.99 45.40 C 68.31 45.58 67.97 46.03 67.96 46.06 L 68.94 47.04 L 68.10 47.08 C 68.93 49.48 70.40 52.11 70.48 52.25 C 70.55 52.20 72.04 51.27 72.87 49.84 L 72.04 48.83 L 73.02 48.98 C 73.00 48.94 72.67 48.09 71.99 47.13 Z" fill="#3887e5" fill-rule="nonzero" group-id="1,3,7,15,26,50,73,93" node-id="435" stroke="none" target-height="11.133701" target-width="10.098099" target-x="65.4298" target-y="44.6828"></path></g><g node-id="939"><path d="M 72.14 43.57 C 72.32 43.78 72.45 44.04 72.49 44.29 C 72.54 44.59 72.57 45.03 72.48 45.54 C 72.27 46.01 71.94 46.38 71.54 46.53 C 71.47 46.56 71.39 46.58 71.31 46.60 C 71.05 46.63 70.78 46.58 70.49 46.42 C 70.21 46.25 69.93 45.99 69.68 45.66 C 69.60 45.56 69.52 45.44 69.44 45.32 C 69.03 44.69 68.70 43.91 68.49 43.18 C 68.50 43.21 68.51 43.24 68.52 43.26 C 68.45 42.79 68.44 42.46 68.46 42.22 C 68.46 42.16 68.47 42.10 68.47 42.05 C 68.50 41.81 68.64 41.68 68.84 41.68 L 72.14 43.57 Z" fill="#ecb4bf" fill-rule="nonzero" group-id="1,3,7,15,26,50,73,94" node-id="440" stroke="none" target-height="4.9580994" target-width="4.1252975" target-x="68.4445" target-y="41.6754"></path></g><path d="M 70.57 40.33 C 70.79 40.47 71.01 40.61 71.21 40.76 C 72.00 41.36 72.65 42.38 72.72 43.36 C 72.73 43.37 72.85 44.49 72.76 44.85 C 72.72 45.13 72.59 45.30 72.47 45.55 C 72.57 45.03 72.54 44.59 72.49 44.29 C 72.45 44.04 72.32 43.78 72.14 43.57 L 68.84 41.68 C 68.64 41.68 68.50 41.81 68.47 42.05 C 68.47 42.10 68.46 42.16 68.46 42.21 C 68.44 42.46 68.45 42.79 68.52 43.26 C 68.51 43.24 68.50 43.21 68.49 43.18 C 68.39 42.84 68.27 42.54 68.24 42.24 C 68.15 41.77 68.28 40.53 68.29 40.46 C 68.61 39.53 69.66 39.81 70.57 40.33 Z" fill="#2a2a5e" fill-rule="nonzero" group-id="1,3,7,15,26,50,73,95" node-id="445" stroke="none" target-height="6.013298" target-width="4.708397" target-x="68.1452" target-y="39.5345"></path></g><g node-id="919"><g node-id="941"><path d="M 56.91 37.28 L 56.97 37.19 L 57.11 37.47 L 56.80 40.04 C 56.19 37.63 55.87 35.12 55.86 34.99 L 55.88 35.08 C 55.97 35.32 56.25 36.43 56.91 37.28 Z" fill="#ffffff" fill-rule="nonzero" group-id="1,3,7,15,26,50,74,96" node-id="453" stroke="none" target-height="5.059101" target-width="1.2570992" target-x="55.8555" target-y="34.9857"></path></g><g node-id="942"><path d="M 55.86 34.99 C 55.87 35.12 56.19 37.63 56.80 40.04 C 56.96 40.67 57.14 41.28 57.34 41.83 C 57.26 41.69 55.79 39.06 54.96 36.66 L 55.80 36.62 L 54.82 35.64 C 54.83 35.62 55.17 35.16 55.86 34.99 Z" fill="#6b9ef9" fill-rule="nonzero" group-id="1,3,7,15,26,50,74,97" node-id="458" stroke="none" target-height="6.8445015" target-width="2.5185966" target-x="54.8165" target-y="34.9857"></path></g><g node-id="943"><path d="M 57.35 36.68 L 57.73 37.63 L 57.59 37.74 L 57.88 40.66 C 57.71 41.11 57.53 41.51 57.34 41.83 C 57.14 41.28 56.96 40.67 56.80 40.04 L 57.11 37.47 L 56.97 37.19 L 57.35 36.68 Z" fill="#2a2a5e" fill-rule="nonzero" group-id="1,3,7,15,26,50,74,98" node-id="463" stroke="none" target-height="5.145302" target-width="1.0732002" target-x="56.803" target-y="36.6847"></path></g><g node-id="944"><path d="M 56.30 34.90 C 56.38 35.02 56.46 35.14 56.54 35.25 C 56.80 35.81 57.32 36.64 57.35 36.68 L 56.97 37.19 L 56.91 37.28 C 56.25 36.43 55.97 35.32 55.88 35.08 L 55.86 34.99 L 56.30 34.90 Z" fill="#dee7f8" fill-rule="nonzero" group-id="1,3,7,15,26,50,74,99" node-id="468" stroke="none" target-height="2.377697" target-width="1.4942017" target-x="55.8555" target-y="34.9009"></path></g><g node-id="945"><path d="M 58.16 36.18 C 57.90 36.44 57.38 36.67 57.35 36.68 C 57.32 36.64 56.80 35.81 56.54 35.25 C 56.79 35.57 57.07 35.84 57.35 36.00 C 57.64 36.17 57.91 36.22 58.16 36.18 Z" fill="#d390a1" fill-rule="nonzero" group-id="1,3,7,15,26,50,74,100" node-id="473" stroke="none" target-height="1.4360008" target-width="1.615303" target-x="56.544" target-y="35.2488"></path></g><g node-id="946"><path d="M 58.41 36.12 L 58.85 36.72 L 58.85 36.73 L 58.82 36.78 C 58.73 36.91 58.45 37.70 57.79 37.79 L 57.73 37.63 L 57.35 36.68 C 57.38 36.67 57.90 36.44 58.16 36.18 C 58.24 36.17 58.33 36.15 58.41 36.12 Z" fill="#dee7f8" fill-rule="nonzero" group-id="1,3,7,15,26,50,74,101" node-id="478" stroke="none" target-height="1.6690979" target-width="1.5028992" target-x="57.3496" target-y="36.1193"></path></g><g node-id="947"><path d="M 58.82 36.78 L 58.85 36.73 C 58.81 36.95 58.47 39.05 57.88 40.66 L 57.59 37.74 L 57.73 37.63 L 57.79 37.79 C 58.45 37.70 58.73 36.91 58.82 36.78 Z" fill="#ffffff" fill-rule="nonzero" group-id="1,3,7,15,26,50,74,102" node-id="483" stroke="none" target-height="3.9305992" target-width="1.2602005" target-x="57.5854" target-y="36.7321"></path></g><g node-id="948"><path d="M 58.85 36.72 C 59.53 37.68 59.86 38.52 59.88 38.56 L 58.90 38.42 L 59.73 39.42 C 58.90 40.85 57.41 41.78 57.34 41.83 C 57.53 41.51 57.71 41.11 57.88 40.66 C 58.47 39.05 58.81 36.95 58.85 36.73 L 58.85 36.72 Z" fill="#6b9ef9" fill-rule="nonzero" group-id="1,3,7,15,26,50,74,103" node-id="488" stroke="none" target-height="5.1122017" target-width="2.5454025" target-x="57.3351" target-y="36.7179"></path></g><g node-id="949"><path d="M 55.86 34.98 C 55.17 35.16 54.83 35.62 54.82 35.64 L 55.80 36.62 L 54.96 36.66 C 55.79 39.06 57.26 41.69 57.34 41.83 C 57.41 41.78 58.90 40.85 59.73 39.42 L 58.90 38.42 L 59.88 38.56 C 59.86 38.52 59.53 37.68 58.85 36.72 L 61.14 38.82 C 61.89 39.50 62.39 40.54 62.39 41.37 L 62.38 44.44 C 62.38 45.12 61.89 45.40 61.29 45.05 L 53.37 40.48 C 52.77 40.13 52.29 39.30 52.29 38.61 L 52.30 35.55 C 52.30 34.72 52.81 34.26 53.56 34.44 L 55.86 34.98 Z" fill="#1e72c6" fill-rule="nonzero" group-id="1,3,7,15,26,50,74,104" node-id="493" stroke="none" target-height="11.133602" target-width="10.101898" target-x="52.2895" target-y="34.2631"></path></g><g node-id="950"><path d="M 57.78 29.97 C 59.89 31.19 59.79 32.55 59.65 33.04 C 59.62 33.16 59.61 33.38 59.63 33.53 C 59.66 33.82 59.69 34.16 59.62 34.43 C 59.59 34.68 59.47 34.84 59.37 35.05 C 59.36 35.07 59.35 35.10 59.33 35.13 C 59.41 34.74 59.41 34.41 59.40 34.16 C 59.39 33.84 59.34 33.63 59.32 33.57 C 59.20 33.33 59.00 32.95 58.48 32.65 C 58.32 32.56 58.12 32.47 57.87 32.40 C 57.76 32.36 57.65 32.31 57.53 32.25 C 57.34 32.14 57.16 31.98 56.98 31.79 C 56.81 31.61 56.60 31.41 56.37 31.27 C 56.05 31.09 55.71 31.03 55.40 31.30 C 55.39 31.32 55.21 31.70 55.38 32.84 C 55.37 32.81 55.36 32.78 55.35 32.75 C 55.25 32.42 55.13 32.11 55.10 31.82 C 55.00 31.35 55.09 30.97 55.14 30.69 L 55.14 30.66 C 55.15 29.26 55.18 28.88 56.30 29.29 C 56.89 29.50 57.37 29.73 57.78 29.97 Z" fill="#8c4031" fill-rule="nonzero" group-id="1,3,7,15,26,50,74,105" node-id="498" stroke="none" target-height="6.2525005" target-width="4.8887978" target-x="55.0049" target-y="28.8753"></path></g><path d="M 56.37 31.27 C 56.60 31.41 56.81 31.61 56.98 31.79 C 57.16 31.98 57.34 32.14 57.53 32.25 C 57.65 32.31 57.76 32.36 57.87 32.40 C 58.12 32.47 58.32 32.56 58.48 32.65 C 59.00 32.95 59.20 33.33 59.32 33.56 C 59.34 33.63 59.39 33.84 59.40 34.16 C 59.41 34.41 59.41 34.74 59.33 35.13 C 59.35 35.10 59.36 35.07 59.37 35.05 C 59.17 35.55 58.83 35.96 58.41 36.12 C 58.33 36.15 58.24 36.17 58.16 36.18 C 57.91 36.22 57.64 36.17 57.35 36.00 C 57.07 35.84 56.79 35.57 56.54 35.25 C 56.46 35.14 56.38 35.02 56.30 34.90 C 55.89 34.27 55.55 33.48 55.35 32.75 C 55.36 32.78 55.37 32.81 55.38 32.84 C 55.21 31.69 55.39 31.32 55.40 31.30 C 55.71 31.03 56.05 31.09 56.37 31.27 Z" fill="#ecb4bf" fill-rule="nonzero" group-id="1,3,7,15,26,50,74,106" node-id="503" stroke="none" target-height="5.1838017" target-width="4.203598" target-x="55.2111" target-y="31.0343"></path></g><g node-id="920"><g node-id="952"><path d="M 45.67 32.02 L 45.69 31.97 C 45.65 32.19 45.31 34.28 44.72 35.89 L 44.43 32.98 L 44.58 32.87 L 44.64 33.02 C 45.29 32.94 45.58 32.15 45.67 32.02 Z" fill="#ffffff" fill-rule="nonzero" group-id="1,3,7,15,26,50,75,107" node-id="511" stroke="none" target-height="3.9224987" target-width="1.2602005" target-x="44.4291" target-y="31.9694"></path></g><g node-id="953"><path d="M 42.70 30.22 C 42.01 30.39 41.68 30.85 41.66 30.87 L 42.64 31.86 L 41.81 31.90 C 42.63 34.30 44.10 36.92 44.18 37.06 C 44.26 37.01 45.74 36.09 46.58 34.66 L 45.74 33.65 L 46.73 33.80 C 46.71 33.76 46.38 32.91 45.70 31.96 L 47.98 34.06 C 48.73 34.74 49.23 35.77 49.23 36.61 L 49.22 39.67 C 49.22 40.36 48.74 40.63 48.14 40.29 L 40.21 35.71 C 39.62 35.37 39.14 34.53 39.14 33.85 L 39.15 30.79 C 39.15 29.95 39.66 29.50 40.41 29.68 L 42.70 30.22 Z" fill="#3887e5" fill-rule="nonzero" group-id="1,3,7,15,26,50,75,108" node-id="516" stroke="none" target-height="11.131302" target-width="10.098099" target-x="39.1369" target-y="29.5029"></path></g><path d="M 45.06 27.46 C 45.39 27.65 45.79 28.04 46.17 28.80 C 46.18 28.83 46.36 29.41 46.18 30.36 C 45.98 30.83 45.65 31.20 45.25 31.35 C 45.17 31.38 45.09 31.40 45.01 31.42 C 44.76 31.45 44.48 31.40 44.20 31.24 C 43.91 31.07 43.64 30.80 43.38 30.48 C 43.30 30.37 43.22 30.26 43.14 30.14 C 42.73 29.49 42.39 28.69 42.19 27.96 C 42.20 28.00 42.21 28.04 42.22 28.08 C 42.15 27.62 42.15 27.28 42.16 27.03 C 42.18 26.74 42.23 26.58 42.24 26.55 C 42.39 26.43 42.70 26.13 43.43 26.55 C 43.68 26.69 43.98 26.93 44.34 27.28 C 44.35 27.28 44.64 27.22 45.06 27.46 Z" fill="#ecb4bf" fill-rule="nonzero" group-id="1,3,7,15,26,50,75,109" node-id="521" stroke="none" target-height="5.322201" target-width="4.208" target-x="42.148" target-y="26.1295"></path></g><g node-id="921"><g node-id="955"><g node-id="966"><path d="M 45.30 49.42 L 40.55 46.68 L 40.56 41.22 L 45.31 43.96 L 45.30 49.42 Z M 40.86 46.51 L 44.99 48.89 L 45.00 44.14 L 40.87 41.76 L 40.86 46.51 Z" fill="#b6cbea" fill-rule="nonzero" group-id="1,3,7,15,26,50,76,110,121" node-id="531" stroke="none" target-height="8.204201" target-width="4.7630005" target-x="40.548" target-y="41.2208"></path></g></g><g node-id="956"><g node-id="967"><path d="M 58.44 55.31 L 53.69 52.56 L 53.71 47.10 L 58.46 49.84 L 58.44 55.31 Z M 54.00 52.39 L 58.13 54.77 L 58.15 50.02 L 54.02 47.64 L 54.00 52.39 Z" fill="#b6cbea" fill-rule="nonzero" group-id="1,3,7,15,26,50,76,111,122" node-id="539" stroke="none" target-height="8.204201" target-width="4.7627983" target-x="53.6944" target-y="47.1012"></path></g></g><g node-id="957"><g node-id="968"><path d="M 71.59 64.61 L 66.84 61.87 L 66.86 56.40 L 71.60 59.14 L 71.59 64.61 Z M 67.15 61.69 L 71.28 64.07 L 71.29 59.32 L 67.16 56.94 L 67.15 61.69 Z" fill="#b6cbea" fill-rule="nonzero" group-id="1,3,7,15,26,50,76,112,123" node-id="547" stroke="none" target-height="8.204205" target-width="4.762802" target-x="66.8408" target-y="56.4018"></path></g></g><path d="M 56.09 51.28 L 55.29 49.22 L 55.71 52.66 L 60.12 49.95 Z" fill="#3a3a77" fill-rule="nonzero" group-id="1,3,7,15,26,50,76" node-id="551" stroke="none" target-height="3.439701" target-width="4.8307" target-x="55.2878" target-y="49.2194"></path></g></g></g><g node-id="872"><g node-id="896"><path d="M 41.97 49.26 L 42.61 51.13 L 44.04 52.20 L 43.00 52.76 L 43.24 54.55 L 41.96 53.03 L 40.68 53.06 L 40.93 51.56 L 39.89 49.80 L 41.33 50.39 Z" fill="#1e72c6" fill-rule="nonzero" group-id="1,3,7,15,27,51" node-id="560" stroke="none" target-height="5.280899" target-width="4.1526985" target-x="39.8916" target-y="49.2647"></path></g><g node-id="897"><path d="M 48.40 52.97 L 49.03 54.84 L 50.47 55.91 L 49.43 56.47 L 49.67 58.25 L 48.39 56.74 L 47.10 56.77 L 47.35 55.27 L 46.32 53.51 L 47.75 54.10 Z" fill="#1e72c6" fill-rule="nonzero" group-id="1,3,7,15,27,52" node-id="565" stroke="none" target-height="5.279701" target-width="4.1525993" target-x="46.3165" target-y="52.974"></path></g><g node-id="898"><path d="M 54.82 56.68 L 55.46 58.55 L 56.89 59.62 L 55.85 60.18 L 56.09 61.96 L 54.81 60.45 L 53.53 60.48 L 53.78 58.98 L 52.74 57.22 L 54.17 57.81 Z" fill="#1e72c6" fill-rule="nonzero" group-id="1,3,7,15,27,53" node-id="570" stroke="none" target-height="5.279701" target-width="4.1548004" target-x="52.7391" target-y="56.6834"></path></g><g node-id="899"><path d="M 61.25 60.39 L 61.88 62.26 L 63.32 63.33 L 62.28 63.89 L 62.52 65.67 L 61.23 64.16 L 59.95 64.19 L 60.20 62.69 L 59.16 60.93 L 60.60 61.52 Z" fill="#9eb5df" fill-rule="nonzero" group-id="1,3,7,15,27,54" node-id="575" stroke="none" target-height="5.280903" target-width="4.1548004" target-x="59.1639" target-y="60.3915"></path></g><path d="M 67.67 64.10 L 68.31 65.97 L 69.74 67.04 L 68.70 67.60 L 68.94 69.38 L 67.66 67.87 L 66.37 67.90 L 66.62 66.40 L 65.59 64.64 L 67.02 65.23 Z" fill="#9eb5df" fill-rule="nonzero" group-id="1,3,7,15,27,55" node-id="580" stroke="none" target-height="5.279701" target-width="4.1527023" target-x="65.5887" target-y="64.1009"></path></g></g></g><g node-id="853"><g node-id="861"><g node-id="873"><path d="M 44.75 85.33 L 45.73 84.64 C 46.41 85.13 46.95 84.89 47.80 84.67 C 48.65 84.48 48.38 85.10 48.38 85.10 C 48.19 85.41 47.83 85.70 47.52 85.91 C 47.28 86.07 47.02 86.20 46.74 86.29 C 45.91 86.53 45.10 87.22 44.85 86.94 C 44.59 86.64 44.75 85.33 44.75 85.33 Z" fill="#2a2a5e" fill-rule="nonzero" group-id="1,3,8,16,28" node-id="592" stroke="none" target-height="2.7386017" target-width="4.0629005" target-x="44.5853" target-y="84.4767"></path><path d="M 48.08 72.34 C 48.08 72.34 44.52 71.75 44.38 72.33 C 44.23 72.93 44.17 73.84 44.50 74.82 C 44.83 75.80 45.05 79.24 44.95 79.99 C 44.82 80.95 44.72 85.48 44.72 85.48 C 45.36 85.61 45.88 85.55 46.15 85.08 C 46.10 84.44 46.94 81.67 47.04 80.30 C 47.07 79.82 47.15 79.35 47.28 78.89 C 48.36 75.24 48.08 72.34 48.08 72.34 Z" fill="#6b9ef9" fill-rule="nonzero" group-id="1,3,8,16,28" node-id="594" stroke="none" target-height="13.858604" target-width="4.1819" target-x="44.1733" target-y="71.7492"></path></g><g node-id="874"><path d="M 47.64 86.48 L 48.81 86.08 C 49.62 86.77 50.03 86.55 51.05 86.60 C 52.06 86.66 51.74 87.20 51.74 87.20 C 51.44 87.55 50.76 87.75 50.36 87.84 C 50.17 87.88 49.98 87.89 49.78 87.89 C 48.80 87.88 47.82 88.32 47.52 87.97 C 47.20 87.59 47.64 86.48 47.64 86.48 Z" fill="#2a2a5e" fill-rule="nonzero" group-id="1,3,8,16,29" node-id="599" stroke="none" target-height="2.2397995" target-width="4.8615" target-x="47.1991" target-y="86.084"></path><path d="M 50.38 73.86 L 46.47 71.86 C 46.29 72.19 45.78 74.01 46.54 75.81 C 46.94 76.76 47.13 77.93 47.21 78.87 C 47.28 79.66 47.23 80.45 47.13 81.24 C 46.87 83.46 47.56 86.56 47.56 86.56 C 48.20 86.69 48.72 86.63 49.00 86.17 C 48.94 85.52 49.13 82.84 49.23 81.47 C 49.27 80.99 49.34 80.52 49.48 80.06 C 50.55 76.41 50.38 73.86 50.38 73.86 Z" fill="#a6c2ff" fill-rule="nonzero" group-id="1,3,8,16,29" node-id="601" stroke="none" target-height="14.831001" target-width="4.7627983" target-x="45.7844" target-y="71.863"></path></g><g node-id="875"><path d="M 50.61 68.10 L 50.63 66.37 C 50.63 65.75 50.55 65.12 50.27 64.57 C 50.05 64.16 50.20 63.69 49.67 63.50 C 48.91 63.24 47.82 62.90 47.82 62.90 C 47.82 62.90 46.95 63.22 45.91 62.46 C 45.91 62.46 44.26 62.28 44.26 63.64 C 44.26 64.33 44.33 65.85 44.49 67.09 C 44.60 67.97 44.67 68.86 44.65 69.75 C 44.64 70.51 44.58 71.39 44.42 72.11 C 44.40 72.19 44.39 72.27 44.38 72.33 C 44.38 72.33 47.68 74.87 50.38 73.86 C 50.38 73.86 50.34 72.78 50.23 71.82 C 50.17 71.23 50.23 70.63 50.36 70.04 C 50.50 69.40 50.60 68.75 50.61 68.10 Z" fill="#3887e5" fill-rule="nonzero" group-id="1,3,8,16,30" node-id="606" stroke="none" target-height="12.594299" target-width="6.368" target-x="44.2634" target-y="62.276"></path><path d="M 47.45 59.26 L 49.64 58.99 C 49.64 58.99 49.53 59.46 49.64 59.84 C 49.75 60.22 49.98 61.08 48.61 62.59 C 47.23 64.09 47.45 59.26 47.45 59.26 Z" fill="#ecb4bf" fill-rule="nonzero" group-id="1,3,8,16,30" node-id="608" stroke="none" target-height="5.104801" target-width="2.746399" target-x="47.2319" target-y="58.9891"></path></g></g><path d="M 56.64 62.84 C 56.61 62.82 56.59 62.82 56.56 62.85 C 56.52 62.91 56.34 63.46 56.33 63.46 C 56.32 63.47 56.31 63.46 56.31 63.46 C 56.29 63.45 56.28 63.42 56.29 63.36 C 56.31 63.28 56.62 62.46 56.52 62.38 C 56.42 62.29 56.41 62.33 56.38 62.43 C 56.35 62.53 56.16 63.10 56.15 63.13 C 56.15 63.13 56.14 63.13 56.14 63.13 C 56.13 63.12 56.13 63.11 56.13 63.07 C 56.13 63.00 56.32 62.39 56.38 62.20 C 56.39 62.16 56.37 62.10 56.33 62.07 C 56.33 62.07 56.33 62.06 56.32 62.06 C 56.30 62.05 56.28 62.05 56.26 62.07 C 56.17 62.16 55.94 62.88 55.93 62.92 C 55.93 62.92 55.92 62.92 55.91 62.92 C 55.90 62.91 55.89 62.89 55.90 62.85 C 55.90 62.78 56.06 62.34 56.12 62.20 C 56.13 62.16 56.11 62.10 56.08 62.07 C 56.07 62.07 56.07 62.07 56.07 62.06 C 56.04 62.05 56.01 62.05 55.99 62.11 C 55.94 62.23 55.74 62.44 55.68 62.83 C 55.64 63.06 55.61 63.09 55.59 63.07 C 55.57 63.06 55.57 63.03 55.57 63.03 C 55.56 63.02 55.52 62.81 55.52 62.75 C 55.52 62.71 55.45 62.48 55.34 62.38 C 55.31 62.36 55.27 62.34 55.24 62.35 C 55.24 62.36 55.26 62.45 55.29 62.57 C 55.33 62.68 55.34 63.01 55.34 63.03 C 55.34 63.04 55.33 63.22 55.40 63.47 C 55.47 63.71 55.44 63.92 55.35 64.16 L 55.90 64.62 C 55.90 64.60 56.04 64.26 56.14 64.21 C 56.24 64.16 56.44 63.71 56.44 63.69 C 56.45 63.67 56.70 62.98 56.68 62.91 C 56.67 62.88 56.65 62.86 56.64 62.84 Z" fill="#ecb4bf" fill-rule="nonzero" group-id="1,3,8" node-id="612" stroke="none" target-height="2.5688019" target-width="1.4623985" target-x="55.2358" target-y="62.0466"></path><path d="M 56.21 64.28 C 56.21 64.28 53.48 68.41 51.95 68.12 C 51.08 67.94 49.60 66.16 48.70 65.26 C 48.11 64.68 48.47 63.65 49.31 63.57 C 49.31 63.57 49.31 63.57 49.31 63.56 C 49.70 63.52 50.09 63.69 50.32 64.00 C 50.99 64.88 52.47 66.45 52.47 66.46 C 52.39 66.41 55.33 63.84 55.33 63.84 C 55.63 63.83 56.23 64.11 56.21 64.28 Z" fill="#3887e5" fill-rule="nonzero" group-id="1,3,8" node-id="614" stroke="none" target-height="4.8889046" target-width="8.119801" target-x="48.1109" target-y="63.524"></path><path d="M 48.90 57.99 C 48.09 57.64 47.22 57.45 46.39 58.07 C 46.33 58.11 45.94 58.44 45.66 58.62 C 45.56 58.69 45.47 58.75 45.40 58.85 C 45.32 58.97 45.28 59.12 45.28 59.25 C 45.22 60.02 45.23 60.78 45.17 61.55 C 45.12 62.01 44.95 62.46 45.01 62.90 C 45.08 63.28 44.93 65.11 44.94 65.48 C 44.94 65.58 44.94 65.69 45.00 65.76 C 45.09 65.92 45.33 66.01 45.29 66.20 C 45.46 66.10 45.64 66.24 45.81 66.34 C 46.15 66.53 46.56 66.55 46.98 66.55 L 47.84 66.55 C 47.93 66.55 48.01 66.55 48.07 66.59 C 48.09 66.62 48.12 66.68 48.18 66.68 C 48.22 66.68 48.25 66.62 48.28 66.61 C 48.32 66.58 48.38 66.59 48.38 66.62 C 48.58 66.34 48.38 66.12 48.58 65.84 C 48.78 65.58 48.63 64.56 48.59 64.35 C 48.54 64.10 49.04 63.48 48.70 62.63 C 48.50 62.29 48.67 62.11 48.52 61.75 C 48.40 61.50 48.29 61.07 48.69 61.04 C 49.11 61.03 48.98 60.65 49.09 60.35 C 49.20 60.07 49.28 59.74 49.52 59.53 C 49.71 58.83 49.51 58.29 48.90 57.99 Z" fill="#a0533f" fill-rule="nonzero" group-id="1,3,8" node-id="616" stroke="none" target-height="9.229" target-width="4.7761" target-x="44.9309" target-y="57.452"></path></g><g node-id="854"><g node-id="862"><g node-id="876"><g node-id="901"><g node-id="922"><g node-id="958"><g node-id="969"><g node-id="975"><g node-id="978"><g node-id="980"><path d="M 31.30 47.23 C 31.30 47.23 28.37 48.10 28.36 48.27 C 28.36 48.33 28.24 51.36 28.29 52.05 C 28.37 53.17 31.32 52.62 30.90 51.86 C 30.63 51.37 30.32 51.02 30.59 50.75 C 30.77 50.57 30.88 50.72 31.10 50.55 C 32.10 49.75 31.30 47.23 31.30 47.23 Z" fill="#ecb4bf" fill-rule="nonzero" group-id="1,3,9,17,31,56,77,113,124,130,133,135" node-id="639" stroke="none" target-height="5.938198" target-width="3.8624" target-x="28.2407" target-y="47.2288"></path></g><path d="M 28.94 52.49 L 28.54 51.15 C 28.17 51.05 28.03 50.94 27.96 50.76 C 27.96 50.76 25.50 51.00 26.68 53.75 C 26.83 54.11 27.08 54.55 27.37 55.04 C 28.55 54.82 29.27 53.63 28.94 52.49 Z" fill="#6b9ef9" fill-rule="nonzero" group-id="1,3,9,17,31,56,77,113,124,130,133" node-id="642" stroke="none" target-height="4.2807007" target-width="3.776701" target-x="25.4977" target-y="50.757"></path><path d="M 31.78 52.50 C 31.44 52.25 31.09 51.95 30.81 51.61 C 30.61 51.37 30.30 51.26 29.99 51.29 C 29.34 51.35 28.43 51.34 28.29 50.71 C 28.29 50.71 26.03 50.56 26.85 53.47 C 27.66 56.38 27.77 58.63 27.48 59.71 C 27.48 59.71 30.62 64.07 32.62 60.43 C 32.62 60.43 32.62 55.91 32.80 55.06 C 32.97 54.32 33.00 53.42 31.78 52.50 Z" fill="#3887e5" fill-rule="nonzero" group-id="1,3,9,17,31,56,77,113,124,130,133" node-id="644" stroke="none" target-height="13.503201" target-width="6.9683" target-x="26.0316" target-y="50.5628"></path><path d="M 33.73 74.86 C 33.33 74.67 32.78 74.65 31.85 74.98 C 30.04 75.64 29.50 75.46 29.50 75.46 C 29.50 75.46 28.89 77.53 30.31 77.14 C 31.39 76.85 32.90 76.00 33.79 75.53 C 34.04 75.40 34.01 75.00 33.73 74.86 Z" fill="#2a2a5e" fill-rule="nonzero" group-id="1,3,9,17,31,56,77,113,124,130,133" node-id="646" stroke="none" target-height="2.8782043" target-width="5.1485996" target-x="28.893" target-y="74.6487"></path><path d="M 31.06 72.94 C 30.67 72.76 30.88 73.10 28.93 72.96 C 27.01 72.82 26.84 73.63 26.84 73.63 C 26.84 73.63 26.23 75.70 27.65 75.29 C 28.73 74.98 30.24 74.10 31.13 73.61 C 31.38 73.47 31.35 73.08 31.06 72.94 Z" fill="#2a2a5e" fill-rule="nonzero" group-id="1,3,9,17,31,56,77,113,124,130,133" node-id="648" stroke="none" target-height="2.9441986" target-width="5.148699" target-x="26.2306" target-y="72.7608"></path><path d="M 32.62 60.43 C 31.74 62.07 27.48 59.71 27.48 59.71 C 27.48 59.71 26.14 61.24 27.00 64.87 C 27.70 67.80 26.56 70.56 26.84 73.62 C 26.84 73.62 28.17 74.40 28.93 72.96 C 28.93 72.96 28.85 69.10 29.06 68.29 C 29.10 68.11 29.34 65.97 29.61 65.03 C 29.74 65.66 29.82 66.28 29.86 67.43 C 29.89 68.44 29.88 69.09 29.81 70.10 C 29.66 72.07 29.50 75.45 29.50 75.45 C 31.24 76.11 31.85 74.98 31.85 74.98 L 31.92 70.90 C 31.94 69.46 31.96 68.35 32.35 66.96 C 33.56 62.60 32.62 60.43 32.62 60.43 Z" fill="#3a3a77" fill-rule="nonzero" group-id="1,3,9,17,31,56,77,113,124,130,133" node-id="650" stroke="none" target-height="16.408798" target-width="7.4146996" target-x="26.1409" target-y="59.7062"></path></g></g></g></g></g></g><g node-id="902"><g node-id="923"><path d="M 32.48 56.64 C 33.07 57.02 33.44 56.97 34.34 57.37 C 34.95 57.63 35.66 57.51 36.13 57.04 C 36.84 56.35 37.84 55.65 38.03 55.56 C 38.15 55.51 38.28 55.47 38.41 55.45 C 38.85 55.42 39.36 55.04 39.36 55.04 C 39.49 54.88 39.59 54.03 39.39 54.13 C 39.20 54.24 38.80 54.47 38.55 54.61 C 38.65 54.43 38.70 54.24 38.72 54.13 C 38.74 54.05 38.72 53.98 38.67 53.93 C 38.62 53.88 38.54 53.88 38.50 53.95 C 38.45 54.08 38.36 54.23 38.26 54.34 C 38.10 54.51 37.99 54.80 37.99 54.80 C 37.99 54.80 37.98 54.83 37.98 54.86 C 37.32 55.08 35.86 55.58 35.51 55.85 C 34.90 56.35 34.12 55.38 34.07 55.31 C 34.07 55.31 33.87 55.19 33.67 54.87 C 33.38 55.21 33.03 55.01 32.62 55.23 C 32.50 55.30 32.42 55.33 32.37 55.35 C 32.17 55.55 32.24 55.70 32.48 56.64 Z" fill="#ecb4bf" fill-rule="nonzero" group-id="1,3,9,17,31,57,78" node-id="662" stroke="none" target-height="3.7584" target-width="7.4165" target-x="32.1736" target-y="53.8757"></path><g node-id="959"><g node-id="970"><g node-id="976"><path d="M 34.07 55.31 C 33.72 54.65 33.16 53.86 32.95 53.57 C 32.38 52.82 31.26 52.72 30.92 53.25 C 30.58 53.78 30.58 54.58 31.15 55.34 C 31.33 55.59 31.98 56.21 32.48 56.64 C 32.80 55.35 34.06 55.31 34.07 55.31 Z" fill="#6b9ef9" fill-rule="nonzero" group-id="1,3,9,17,31,57,78,114,125,131" node-id="670" stroke="none" target-height="3.9173012" target-width="3.4890003" target-x="30.5809" target-y="52.7206"></path></g></g></g></g></g></g><path d="M 32.62 60.43 C 32.06 61.21 30.54 61.04 29.07 60.45 C 28.42 62.09 28.63 63.43 29.11 64.28 C 29.50 64.97 29.75 65.72 29.81 66.51 C 29.83 66.76 29.84 67.03 29.86 67.36 C 29.89 68.27 29.87 69.18 29.81 70.09 C 29.67 72.06 29.50 75.45 29.50 75.45 C 31.24 76.11 31.85 74.98 31.85 74.98 L 31.93 70.45 C 31.95 69.08 32.17 67.72 32.50 66.38 C 33.47 62.41 32.62 60.43 32.62 60.43 Z" fill="#4c4a8b" fill-rule="nonzero" group-id="1,3,9,17" node-id="678" stroke="none" target-height="15.682899" target-width="5.054901" target-x="28.4169" target-y="60.432"></path></g><path d="M 29.42 46.74 C 27.42 46.80 27.62 48.78 27.60 49.12 C 27.59 49.41 27.74 49.85 27.81 50.37 C 28.13 50.78 28.82 51.00 29.24 50.98 C 29.39 50.65 29.19 50.13 29.44 49.98 C 29.82 49.73 29.84 50.35 29.83 50.61 L 30.01 50.57 C 30.11 50.04 30.06 49.82 30.26 49.68 C 31.14 49.07 33.72 46.63 29.42 46.74 Z" fill="#a0533f" fill-rule="nonzero" group-id="1,3,9" node-id="681" stroke="none" target-height="4.3782997" target-width="6.2989006" target-x="27.4175" target-y="46.6255"></path></g><g node-id="855"><path d="M 59.33 76.78 C 59.30 75.45 59.35 73.11 59.44 72.66 C 59.44 72.66 59.62 71.42 60.74 71.79 C 61.61 72.08 61.18 75.30 60.96 76.49 C 60.89 76.84 62.48 80.47 62.48 80.47 C 62.48 80.47 62.13 80.50 61.85 81.03 L 59.63 77.75 C 59.44 77.46 59.33 77.12 59.33 76.78 Z" fill="#9eb5df" fill-rule="nonzero" group-id="1,3,10" node-id="686" stroke="none" target-height="9.605705" target-width="3.1829987" target-x="59.3011" target-y="71.421"></path><g node-id="863"><g node-id="877"><g node-id="903"><path d="M 60.69 94.53 L 61.94 94.11 C 62.80 94.84 63.24 94.61 64.33 94.66 C 65.41 94.72 65.06 95.30 65.06 95.30 C 64.75 95.67 64.02 95.88 63.59 95.98 C 63.39 96.03 63.19 96.03 62.98 96.03 C 61.93 96.03 60.88 96.50 60.57 96.12 C 60.22 95.72 60.69 94.53 60.69 94.53 Z" fill="#2a2a5e" fill-rule="nonzero" group-id="1,3,10,18,32,58" node-id="694" stroke="none" target-height="2.3885956" target-width="5.1847" target-x="60.2237" target-y="94.1098"></path><g node-id="924"><path d="M 59.70 83.09 C 59.12 81.20 60.15 79.98 60.32 79.67 L 63.41 80.66 C 63.41 80.66 63.69 83.51 62.66 87.28 C 62.52 87.77 62.44 88.28 62.41 88.79 C 62.30 90.30 62.11 93.34 62.16 94.09 C 61.87 94.64 61.32 94.71 60.65 94.56 C 60.65 94.56 59.96 90.91 60.30 88.46 C 60.41 87.69 60.47 86.91 60.43 86.15 C 60.38 85.23 60.01 84.07 59.70 83.09 Z" fill="#3a3a77" fill-rule="nonzero" group-id="1,3,10,18,32,58,79" node-id="698" stroke="none" target-height="15.034401" target-width="4.5718" target-x="59.1202" target-y="79.6746"></path></g><g node-id="925"><path d="M 62.66 95.86 L 63.91 95.44 C 64.77 96.17 65.20 95.94 66.30 95.99 C 67.37 96.05 67.03 96.63 67.03 96.63 C 66.71 97.00 65.99 97.21 65.56 97.31 C 65.36 97.36 65.15 97.36 64.94 97.36 C 63.89 97.36 62.85 97.83 62.53 97.45 C 62.19 97.05 62.66 95.86 62.66 95.86 Z" fill="#2a2a5e" fill-rule="nonzero" group-id="1,3,10,18,32,58,80" node-id="703" stroke="none" target-height="2.3886032" target-width="5.184799" target-x="62.1884" target-y="95.4398"></path><path d="M 61.32 84.09 C 60.60 82.29 61.35 80.52 61.52 80.21 L 65.24 81.31 C 65.24 81.31 65.50 84.69 64.50 88.53 C 64.37 89.03 64.30 89.55 64.27 90.07 C 64.19 91.61 64.03 94.71 64.10 95.47 C 63.81 96.02 63.26 96.10 62.58 95.95 C 62.58 95.95 61.85 92.31 62.13 89.82 C 62.23 88.96 62.28 88.10 62.21 87.25 C 62.13 86.27 61.71 85.05 61.32 84.09 Z" fill="#4c4a8b" fill-rule="nonzero" group-id="1,3,10,18,32,58,80" node-id="705" stroke="none" target-height="15.892204" target-width="4.8958015" target-x="60.6013" target-y="80.2075"></path></g></g></g><g node-id="878"><g node-id="904"><g node-id="926"><g node-id="960"><g node-id="971"><g node-id="977"><g node-id="979"><g node-id="981"><path d="M 63.98 68.06 C 63.98 68.06 61.04 68.93 61.03 69.10 C 61.03 69.16 60.91 72.19 60.96 72.88 C 61.04 74.00 63.99 73.45 63.57 72.70 C 63.30 72.20 62.99 71.85 63.26 71.58 C 63.44 71.40 63.56 71.55 63.77 71.39 C 64.78 70.58 63.98 68.06 63.98 68.06 Z" fill="#ecb4bf" fill-rule="nonzero" group-id="1,3,10,18,33,59,81,115,126,132,134,136" node-id="726" stroke="none" target-height="5.943001" target-width="3.8656998" target-x="60.9103" target-y="68.0597"></path></g><path d="M 64.46 73.34 C 64.12 73.08 63.76 72.78 63.48 72.44 C 63.28 72.21 62.97 72.10 62.66 72.13 C 62.01 72.19 61.10 72.17 60.96 71.54 C 60.96 71.54 58.93 71.34 59.52 74.31 C 60.10 77.24 59.65 79.31 59.67 80.96 C 59.67 80.96 62.97 84.63 65.27 82.53 C 65.27 82.53 65.29 76.75 65.48 75.90 C 65.64 75.16 65.67 74.26 64.46 73.34 Z" fill="#b6cbea" fill-rule="nonzero" group-id="1,3,10,18,33,59,81,115,126,132,134" node-id="729" stroke="none" target-height="13.2883" target-width="6.744499" target-x="58.929" target-y="71.3413"></path></g></g></g></g></g></g></g><g node-id="879"><path d="M 69.59 78.47 C 69.67 78.39 69.65 78.13 70.23 77.80 C 70.62 77.57 70.85 77.46 70.96 77.42 C 71.00 77.41 71.04 77.44 71.03 77.48 C 71.03 77.52 71.02 77.56 70.99 77.60 C 70.95 77.72 70.82 77.88 70.52 77.98 C 70.48 77.99 70.46 78.03 70.47 78.07 C 70.50 78.14 70.60 78.23 70.95 78.11 C 71.49 77.94 71.78 78.03 71.79 78.03 C 71.79 78.03 71.82 78.07 71.79 78.12 C 71.77 78.18 71.68 78.27 71.41 78.33 C 71.43 78.33 71.92 78.27 71.85 78.41 C 71.84 78.45 71.81 78.48 71.74 78.53 C 71.74 78.53 71.70 78.55 71.53 78.56 C 71.63 78.56 71.78 78.58 71.75 78.64 C 71.74 78.66 71.71 78.70 71.63 78.73 C 71.35 78.87 71.22 78.90 71.18 78.90 C 71.25 78.92 71.41 78.98 71.38 79.06 C 71.37 79.09 71.33 79.12 71.24 79.16 C 70.92 79.29 70.25 79.42 69.81 79.19 C 69.68 79.13 69.54 79.12 69.41 79.18 L 69.31 79.22 L 69.27 78.60 C 69.29 78.60 69.51 78.56 69.59 78.47 Z" fill="#ecb4bf" fill-rule="nonzero" group-id="1,3,10,18,34" node-id="740" stroke="none" target-height="2.0110016" target-width="2.648201" target-x="69.2697" target-y="77.4061"></path><g node-id="905"><g node-id="927"><g node-id="961"><path d="M 64.37 73.39 C 65.97 73.90 66.10 76.94 66.09 78.19 C 66.08 78.46 66.33 78.67 66.60 78.62 C 67.50 78.45 69.29 78.29 69.66 78.28 C 69.66 78.28 69.45 78.92 69.87 79.32 C 69.87 79.32 65.83 80.74 65.00 80.28 C 64.17 79.81 62.33 72.75 64.37 73.39 Z" fill="#9eb5df" fill-rule="nonzero" group-id="1,3,10,18,34,60,82,116" node-id="748" stroke="none" target-height="7.9913025" target-width="7.5414963" target-x="62.3321" target-y="72.7503"></path></g></g></g></g></g><path d="M 60.70 67.74 C 61.54 66.76 64.27 67.08 64.31 68.04 C 64.33 68.60 63.92 68.91 63.64 69.13 C 63.54 69.21 63.49 69.33 63.48 69.45 C 63.47 69.79 63.50 70.07 63.50 70.07 L 63.32 70.29 C 63.27 69.92 63.21 69.73 63.16 69.60 C 63.14 69.56 63.08 69.55 63.04 69.58 C 62.88 69.73 62.77 69.94 62.74 70.17 C 62.71 70.44 62.69 70.89 62.83 71.30 C 62.91 71.55 62.75 71.81 62.49 71.83 C 61.96 71.86 61.51 71.77 60.96 71.49 C 60.68 71.35 60.50 71.07 60.46 70.77 C 60.41 70.42 60.36 70.05 60.36 70.05 C 59.98 68.18 60.70 67.74 60.70 67.74 Z" fill="#3a3a77" fill-rule="nonzero" group-id="1,3,10" node-id="755" stroke="none" target-height="5.099304" target-width="4.3530006" target-x="59.976" target-y="66.7644"></path></g><g node-id="856"><g node-id="864"><g node-id="880"><path d="M 92.12 92.94 L 92.12 94.89 C 92.12 95.08 91.99 95.27 91.74 95.42 L 83.46 100.23 C 82.95 100.53 82.13 100.53 81.62 100.23 L 71.11 94.16 C 70.85 94.01 70.72 93.82 70.72 93.62 L 70.73 91.68 C 70.73 91.87 70.86 92.07 71.12 92.21 L 81.63 98.28 C 82.13 98.58 82.96 98.58 83.47 98.28 L 91.75 93.47 C 92.00 93.33 92.12 93.13 92.12 92.94 Z" fill="#1e72c6" fill-rule="nonzero" group-id="1,3,11,19,35" node-id="764" stroke="none" target-height="8.8479" target-width="21.402596" target-x="70.7218" target-y="91.6773"></path></g><g node-id="881"><path d="M 91.74 92.41 C 92.25 92.70 92.25 93.18 91.75 93.47 L 83.47 98.28 C 82.96 98.58 82.14 98.58 81.63 98.28 L 71.11 92.22 C 70.60 91.92 70.60 91.44 71.11 91.15 L 79.39 86.34 C 79.89 86.04 80.72 86.04 81.23 86.34 L 91.74 92.41 Z" fill="#6b9ef9" fill-rule="nonzero" group-id="1,3,11,19,36" node-id="769" stroke="none" target-height="12.5364" target-width="21.653" target-x="70.6005" target-y="86.0417"></path></g><g node-id="882"><g node-id="906"><path d="M 87.73 91.07 C 87.87 91.15 87.93 91.25 87.88 91.38 C 87.76 91.73 87.39 91.99 86.87 92.17 C 86.37 92.35 85.81 92.46 85.23 92.51 C 85.04 92.53 84.69 92.71 84.67 92.82 C 84.65 92.85 84.69 92.90 84.73 92.93 C 85.04 93.12 85.38 93.30 85.67 93.50 C 85.86 93.62 86.04 93.76 86.17 93.91 C 86.33 94.10 86.25 94.24 85.97 94.39 C 85.76 94.50 85.52 94.57 85.21 94.55 C 85.31 94.76 85.37 94.96 85.10 95.13 C 84.83 95.30 84.48 95.29 84.11 95.25 C 84.00 95.66 83.70 95.77 82.99 95.72 C 82.87 95.83 82.78 95.95 82.63 96.03 C 82.35 96.18 81.96 96.16 81.62 96.01 C 81.56 95.99 81.51 95.96 81.46 95.93 C 80.30 95.26 78.64 94.30 77.39 93.58 L 77.67 93.42 L 77.11 93.10 L 80.32 91.23 C 80.57 91.38 80.86 91.54 81.00 91.62 C 81.06 91.65 81.30 91.60 81.38 91.59 C 82.09 91.55 82.81 91.49 83.52 91.44 C 83.70 91.43 83.89 91.43 84.07 91.44 C 85.08 91.53 86.00 91.42 86.82 91.07 C 86.87 91.05 86.92 91.04 86.97 91.02 C 87.18 90.93 87.40 90.92 87.62 91.01 C 87.66 91.03 87.70 91.05 87.73 91.07 Z" fill="#ffffff" fill-rule="nonzero" group-id="1,3,11,19,37,61" node-id="776" stroke="none" target-height="5.257599" target-width="10.814796" target-x="77.1115" target-y="90.9246"></path></g><path d="M 80.09 90.73 C 80.22 90.81 80.22 90.93 80.09 91.01 L 76.65 93.01 C 76.51 93.09 76.30 93.09 76.17 93.01 L 75.06 92.37 C 74.93 92.30 74.92 92.17 75.06 92.09 L 78.50 90.09 C 78.63 90.02 78.85 90.02 78.98 90.09 L 80.09 90.73 Z" fill="#ffffff" fill-rule="nonzero" group-id="1,3,11,19,37,62" node-id="781" stroke="none" target-height="3.0735016" target-width="5.3011017" target-x="74.9221" target-y="90.0159"></path></g></g></g><g node-id="857"><g node-id="865"><g node-id="883"><path d="M 89.82 70.63 L 91.30 69.77 L 95.52 71.50 L 94.04 72.36 Z" fill="#dee7f8" fill-rule="nonzero" group-id="1,3,12,20,38" node-id="793" stroke="none" target-height="2.591896" target-width="5.702202" target-x="89.8199" target-y="69.7676"></path></g><g node-id="884"><path d="M 98.97 79.33 L 100.45 78.47 L 101.16 83.72 L 99.67 84.58 Z" fill="#b6cbea" fill-rule="nonzero" group-id="1,3,12,20,39" node-id="798" stroke="none" target-height="6.1052017" target-width="2.188301" target-x="98.9682" target-y="78.4738"></path></g><g node-id="885"><path d="M 95.94 69.06 L 97.42 68.20 L 99.30 73.68 L 97.81 74.54 Z" fill="#b6cbea" fill-rule="nonzero" group-id="1,3,12,20,40" node-id="803" stroke="none" target-height="6.342697" target-width="3.3559952" target-x="95.9399" target-y="68.1956"></path></g><g node-id="886"><path d="M 97.81 74.54 L 99.30 73.68 L 103.51 76.82 L 102.03 77.68 Z" fill="#dee7f8" fill-rule="nonzero" group-id="1,3,12,20,41" node-id="808" stroke="none" target-height="4.0013046" target-width="5.698204" target-x="97.8144" target-y="73.6774"></path></g><path d="M 95.94 69.06 L 97.81 74.54 L 102.03 77.68 L 98.97 79.33 L 99.67 84.58 L 95.91 80.12 L 92.13 80.22 L 92.86 75.81 L 89.82 70.63 L 94.04 72.36 Z" fill="#83a1cc" fill-rule="nonzero" group-id="1,3,12,20,42" node-id="813" stroke="none" target-height="15.522499" target-width="12.211197" target-x="89.8199" target-y="69.0565"></path></g></g><g node-id="858"><g node-id="866"><path d="M 102.47 55.66 C 102.47 57.58 101.79 58.93 100.70 59.56 L 97.89 61.20 C 98.98 60.57 99.65 59.22 99.66 57.30 C 99.67 53.45 96.96 48.74 93.60 46.81 C 91.92 45.84 90.38 45.74 89.28 46.39 L 92.09 44.75 C 93.20 44.11 94.72 44.20 96.41 45.17 C 99.77 47.11 102.48 51.81 102.47 55.66 Z" fill="#a6c2ff" fill-rule="nonzero" group-id="1,3,13,21" node-id="822" stroke="none" target-height="17.093197" target-width="13.2061" target-x="89.2773" target-y="44.1071"></path></g><g node-id="867"><path d="M 93.60 46.81 C 96.96 48.75 99.67 53.44 99.66 57.30 C 99.65 61.16 96.92 62.71 93.56 60.77 C 90.21 58.84 87.49 54.14 87.51 50.28 C 87.52 46.43 90.25 44.87 93.60 46.81 Z" fill="#3887e5" fill-rule="nonzero" group-id="1,3,13,22" node-id="827" stroke="none" target-height="17.8415" target-width="12.176399" target-x="87.4941" target-y="44.8707"></path></g><g node-id="868"><g node-id="888"><path d="M 96.37 52.00 C 95.87 51.71 95.46 51.95 95.46 52.52 C 95.46 53.10 95.86 53.80 96.36 54.09 C 96.87 54.38 97.28 54.15 97.28 53.57 C 97.28 53.00 96.87 52.29 96.37 52.00 Z" fill="#ffffff" fill-rule="nonzero" group-id="1,3,13,23,43" node-id="834" stroke="none" target-height="2.6673012" target-width="1.8225021" target-x="95.4562" target-y="51.7133"></path></g><g node-id="889"><path d="M 90.82 48.80 C 90.32 48.51 89.91 48.74 89.91 49.32 C 89.91 49.90 90.31 50.60 90.81 50.89 C 91.32 51.18 91.73 50.95 91.73 50.37 C 91.73 49.79 91.32 49.09 90.82 48.80 Z" fill="#ffffff" fill-rule="nonzero" group-id="1,3,13,23,44" node-id="839" stroke="none" target-height="2.6671982" target-width="1.8224945" target-x="89.9064" target-y="48.5091"></path></g><path d="M 89.50 52.36 C 89.48 52.34 89.46 52.33 89.43 52.33 C 89.28 52.28 89.19 52.41 89.23 52.60 C 89.73 55.19 91.52 57.82 93.57 59.00 C 95.62 60.19 97.42 59.62 97.94 57.63 C 97.98 57.48 97.88 57.25 97.73 57.12 C 97.71 57.10 97.69 57.08 97.66 57.07 C 97.54 56.99 97.42 57.03 97.39 57.15 C 96.94 58.90 95.37 59.39 93.57 58.35 C 91.78 57.32 90.22 55.02 89.78 52.76 C 89.74 52.59 89.63 52.43 89.50 52.36 Z" fill="#ffffff" fill-rule="nonzero" group-id="1,3,13,23,45" node-id="844" stroke="none" target-height="7.9057007" target-width="8.785805" target-x="89.1896" target-y="52.2833"></path></g></g></g></g></svg>